<mxfile host="app.diagrams.net" modified="2024-02-09T20:56:22.384Z" agent="Mozilla/5.0 (Windows NT 10.0; Win64; x64) AppleWebKit/537.36 (KHTML, like Gecko) Chrome/121.0.0.0 Safari/537.36" etag="EBqmaaxdtfnsjtrkWWhT" version="23.1.2" type="device" pages="6">
  <diagram name="1" id="2YBvvXClWsGukQMizWep">
    <mxGraphModel dx="1032" dy="580" grid="1" gridSize="10" guides="1" tooltips="1" connect="1" arrows="1" fold="1" page="1" pageScale="1" pageWidth="827" pageHeight="1169" math="0" shadow="0">
      <root>
        <mxCell id="0" />
        <mxCell id="1" parent="0" />
        <mxCell id="pBImxP6miKMbB3lka8_O-1" value="UI" style="shape=umlLifeline;perimeter=lifelinePerimeter;whiteSpace=wrap;html=1;container=0;dropTarget=0;collapsible=0;recursiveResize=0;outlineConnect=0;portConstraint=eastwest;newEdgeStyle={&quot;edgeStyle&quot;:&quot;elbowEdgeStyle&quot;,&quot;elbow&quot;:&quot;vertical&quot;,&quot;curved&quot;:0,&quot;rounded&quot;:0};" parent="1" vertex="1">
          <mxGeometry x="239" y="90" width="100" height="440" as="geometry" />
        </mxCell>
        <mxCell id="pBImxP6miKMbB3lka8_O-2" value="" style="html=1;points=[];perimeter=orthogonalPerimeter;outlineConnect=0;targetShapes=umlLifeline;portConstraint=eastwest;newEdgeStyle={&quot;edgeStyle&quot;:&quot;elbowEdgeStyle&quot;,&quot;elbow&quot;:&quot;vertical&quot;,&quot;curved&quot;:0,&quot;rounded&quot;:0};" parent="pBImxP6miKMbB3lka8_O-1" vertex="1">
          <mxGeometry x="45" y="50" width="10" height="330" as="geometry" />
        </mxCell>
        <mxCell id="pBImxP6miKMbB3lka8_O-3" value="" style="shape=umlDestroy;whiteSpace=wrap;html=1;strokeWidth=3;targetShapes=umlLifeline;" parent="pBImxP6miKMbB3lka8_O-1" vertex="1">
          <mxGeometry x="40" y="410" width="20" height="20" as="geometry" />
        </mxCell>
        <mxCell id="pBImxP6miKMbB3lka8_O-4" value="Database" style="shape=umlLifeline;perimeter=lifelinePerimeter;whiteSpace=wrap;html=1;container=0;dropTarget=0;collapsible=0;recursiveResize=0;outlineConnect=0;portConstraint=eastwest;newEdgeStyle={&quot;edgeStyle&quot;:&quot;elbowEdgeStyle&quot;,&quot;elbow&quot;:&quot;vertical&quot;,&quot;curved&quot;:0,&quot;rounded&quot;:0};" parent="1" vertex="1">
          <mxGeometry x="659" y="90" width="100" height="430" as="geometry" />
        </mxCell>
        <mxCell id="pBImxP6miKMbB3lka8_O-5" value="" style="html=1;points=[];perimeter=orthogonalPerimeter;outlineConnect=0;targetShapes=umlLifeline;portConstraint=eastwest;newEdgeStyle={&quot;edgeStyle&quot;:&quot;elbowEdgeStyle&quot;,&quot;elbow&quot;:&quot;vertical&quot;,&quot;curved&quot;:0,&quot;rounded&quot;:0};" parent="pBImxP6miKMbB3lka8_O-4" vertex="1">
          <mxGeometry x="45" y="50" width="10" height="330" as="geometry" />
        </mxCell>
        <mxCell id="pBImxP6miKMbB3lka8_O-6" value="" style="shape=umlDestroy;whiteSpace=wrap;html=1;strokeWidth=3;targetShapes=umlLifeline;" parent="pBImxP6miKMbB3lka8_O-4" vertex="1">
          <mxGeometry x="40" y="410" width="20" height="20" as="geometry" />
        </mxCell>
        <mxCell id="pBImxP6miKMbB3lka8_O-7" value="Add the&amp;nbsp; Project Details" style="html=1;verticalAlign=bottom;endArrow=block;edgeStyle=elbowEdgeStyle;elbow=vertical;curved=0;rounded=0;" parent="1" edge="1">
          <mxGeometry relative="1" as="geometry">
            <mxPoint x="504" y="304.33000000000004" as="sourcePoint" />
            <Array as="points">
              <mxPoint x="606.5" y="304.33000000000004" />
              <mxPoint x="566.5" y="294.33000000000004" />
              <mxPoint x="636.5" y="164.33000000000004" />
              <mxPoint x="604" y="154.33000000000004" />
              <mxPoint x="584" y="184.33000000000004" />
            </Array>
            <mxPoint x="708.5" y="304.3299999999999" as="targetPoint" />
          </mxGeometry>
        </mxCell>
        <mxCell id="pBImxP6miKMbB3lka8_O-8" value="Prpject Details Not Saved" style="html=1;verticalAlign=bottom;endArrow=open;dashed=1;endSize=8;edgeStyle=elbowEdgeStyle;elbow=vertical;curved=0;rounded=0;" parent="1" edge="1">
          <mxGeometry x="-0.0008" relative="1" as="geometry">
            <mxPoint x="499" y="418" as="targetPoint" />
            <Array as="points">
              <mxPoint x="549" y="418" />
              <mxPoint x="639" y="488" />
              <mxPoint x="619" y="478" />
              <mxPoint x="599" y="468" />
              <mxPoint x="579" y="458" />
              <mxPoint x="594" y="438" />
            </Array>
            <mxPoint as="offset" />
            <mxPoint x="704" y="418" as="sourcePoint" />
          </mxGeometry>
        </mxCell>
        <mxCell id="pBImxP6miKMbB3lka8_O-9" value="Project Details Saved Successfully" style="html=1;verticalAlign=bottom;endArrow=open;dashed=1;endSize=8;edgeStyle=elbowEdgeStyle;elbow=vertical;curved=0;rounded=0;" parent="1" edge="1">
          <mxGeometry relative="1" as="geometry">
            <mxPoint x="499" y="340" as="targetPoint" />
            <Array as="points">
              <mxPoint x="559" y="340" />
              <mxPoint x="599" y="380" />
              <mxPoint x="579" y="370" />
              <mxPoint x="589" y="370" />
            </Array>
            <mxPoint x="704" y="340" as="sourcePoint" />
          </mxGeometry>
        </mxCell>
        <mxCell id="pBImxP6miKMbB3lka8_O-10" value="" style="endArrow=none;dashed=1;html=1;rounded=0;" parent="1" edge="1">
          <mxGeometry width="50" height="50" relative="1" as="geometry">
            <mxPoint x="109" y="520" as="sourcePoint" />
            <mxPoint x="109" y="160" as="targetPoint" />
          </mxGeometry>
        </mxCell>
        <mxCell id="pBImxP6miKMbB3lka8_O-11" value="Senior Project Manger" style="shape=umlActor;verticalLabelPosition=bottom;verticalAlign=top;html=1;outlineConnect=0;" parent="1" vertex="1">
          <mxGeometry x="99" y="70" width="20" height="40" as="geometry" />
        </mxCell>
        <mxCell id="pBImxP6miKMbB3lka8_O-12" value="Alternative" style="shape=umlFrame;whiteSpace=wrap;html=1;pointerEvents=0;" parent="1" vertex="1">
          <mxGeometry x="69" y="320" width="680" height="140" as="geometry" />
        </mxCell>
        <mxCell id="pBImxP6miKMbB3lka8_O-13" value="" style="line;strokeWidth=1;fillColor=none;align=left;verticalAlign=middle;spacingTop=-1;spacingLeft=3;spacingRight=3;rotatable=0;labelPosition=right;points=[];portConstraint=eastwest;strokeColor=inherit;" parent="1" vertex="1">
          <mxGeometry x="69" y="390" width="680" height="8" as="geometry" />
        </mxCell>
        <mxCell id="pBImxP6miKMbB3lka8_O-14" value="&lt;font style=&quot;&quot;&gt;&lt;b style=&quot;font-size: 16px;&quot;&gt;Sequence Diagram - Senior Project Manager Add New Project&lt;/b&gt;&lt;/font&gt;&lt;b style=&quot;border-color: var(--border-color); font-size: 16px;&quot;&gt;&amp;nbsp;&lt;/b&gt;" style="text;html=1;strokeColor=none;fillColor=none;align=center;verticalAlign=middle;whiteSpace=wrap;rounded=0;" parent="1" vertex="1">
          <mxGeometry x="179" y="40" width="510" height="30" as="geometry" />
        </mxCell>
        <mxCell id="pBImxP6miKMbB3lka8_O-15" value="Display Project Added Succesfully" style="html=1;verticalAlign=bottom;endArrow=block;edgeStyle=elbowEdgeStyle;elbow=vertical;curved=0;rounded=0;dashed=1;" parent="1" edge="1">
          <mxGeometry width="80" relative="1" as="geometry">
            <mxPoint x="280" y="380" as="sourcePoint" />
            <mxPoint x="110" y="380" as="targetPoint" />
            <Array as="points">
              <mxPoint x="200" y="380" />
            </Array>
          </mxGeometry>
        </mxCell>
        <mxCell id="pBImxP6miKMbB3lka8_O-16" value="Display Error Message" style="html=1;verticalAlign=bottom;endArrow=block;edgeStyle=elbowEdgeStyle;elbow=vertical;curved=0;rounded=0;dashed=1;" parent="1" edge="1">
          <mxGeometry width="80" relative="1" as="geometry">
            <mxPoint x="280" y="450" as="sourcePoint" />
            <mxPoint x="110" y="450" as="targetPoint" />
          </mxGeometry>
        </mxCell>
        <mxCell id="pBImxP6miKMbB3lka8_O-17" value="&lt;font style=&quot;&quot;&gt;&lt;b style=&quot;font-size: 10px;&quot;&gt;[if project Added Successfully&lt;/b&gt;&lt;/font&gt;" style="text;html=1;strokeColor=none;fillColor=none;align=left;verticalAlign=middle;whiteSpace=wrap;rounded=0;" parent="1" vertex="1">
          <mxGeometry x="131.5" y="320" width="148.5" height="10" as="geometry" />
        </mxCell>
        <mxCell id="pBImxP6miKMbB3lka8_O-18" value="&lt;font style=&quot;font-size: 10px;&quot;&gt;&lt;b&gt;[else]&lt;/b&gt;&lt;/font&gt;" style="text;html=1;strokeColor=none;fillColor=none;align=left;verticalAlign=middle;whiteSpace=wrap;rounded=0;" parent="1" vertex="1">
          <mxGeometry x="110" y="398" width="80" height="10" as="geometry" />
        </mxCell>
        <mxCell id="pBImxP6miKMbB3lka8_O-19" value="Add the Project Details" style="html=1;verticalAlign=bottom;endArrow=blockThin;edgeStyle=elbowEdgeStyle;elbow=vertical;curved=0;rounded=0;endFill=1;" parent="1" edge="1">
          <mxGeometry relative="1" as="geometry">
            <mxPoint x="284" y="210" as="targetPoint" />
            <Array as="points">
              <mxPoint x="222.25" y="210" />
              <mxPoint x="189.75" y="230" />
            </Array>
            <mxPoint x="110.25" y="210" as="sourcePoint" />
            <mxPoint as="offset" />
          </mxGeometry>
        </mxCell>
        <mxCell id="pBImxP6miKMbB3lka8_O-21" value="System" style="shape=umlLifeline;perimeter=lifelinePerimeter;whiteSpace=wrap;html=1;container=0;dropTarget=0;collapsible=0;recursiveResize=0;outlineConnect=0;portConstraint=eastwest;newEdgeStyle={&quot;edgeStyle&quot;:&quot;elbowEdgeStyle&quot;,&quot;elbow&quot;:&quot;vertical&quot;,&quot;curved&quot;:0,&quot;rounded&quot;:0};" parent="1" vertex="1">
          <mxGeometry x="449" y="90" width="100" height="430" as="geometry" />
        </mxCell>
        <mxCell id="pBImxP6miKMbB3lka8_O-22" value="" style="html=1;points=[];perimeter=orthogonalPerimeter;outlineConnect=0;targetShapes=umlLifeline;portConstraint=eastwest;newEdgeStyle={&quot;edgeStyle&quot;:&quot;elbowEdgeStyle&quot;,&quot;elbow&quot;:&quot;vertical&quot;,&quot;curved&quot;:0,&quot;rounded&quot;:0};" parent="pBImxP6miKMbB3lka8_O-21" vertex="1">
          <mxGeometry x="45" y="50" width="10" height="330" as="geometry" />
        </mxCell>
        <mxCell id="pBImxP6miKMbB3lka8_O-23" value="" style="shape=umlDestroy;whiteSpace=wrap;html=1;strokeWidth=3;targetShapes=umlLifeline;" parent="pBImxP6miKMbB3lka8_O-21" vertex="1">
          <mxGeometry x="40" y="410" width="20" height="20" as="geometry" />
        </mxCell>
        <mxCell id="pBImxP6miKMbB3lka8_O-24" value="Added Project Details" style="html=1;verticalAlign=bottom;endArrow=block;edgeStyle=elbowEdgeStyle;elbow=vertical;curved=0;rounded=0;" parent="1" edge="1">
          <mxGeometry relative="1" as="geometry">
            <mxPoint x="299" y="260" as="sourcePoint" />
            <Array as="points">
              <mxPoint x="401.5" y="260" />
              <mxPoint x="361.5" y="250" />
              <mxPoint x="431.5" y="120" />
              <mxPoint x="399" y="110" />
              <mxPoint x="379" y="140" />
            </Array>
            <mxPoint x="489" y="260" as="targetPoint" />
          </mxGeometry>
        </mxCell>
        <mxCell id="pBImxP6miKMbB3lka8_O-25" value="Saved Successfully" style="html=1;verticalAlign=bottom;endArrow=block;edgeStyle=elbowEdgeStyle;elbow=vertical;curved=0;rounded=0;dashed=1;" parent="1" edge="1">
          <mxGeometry width="80" relative="1" as="geometry">
            <mxPoint x="489.5" y="360" as="sourcePoint" />
            <mxPoint x="290" y="360" as="targetPoint" />
            <Array as="points">
              <mxPoint x="380" y="360" />
            </Array>
          </mxGeometry>
        </mxCell>
        <mxCell id="pBImxP6miKMbB3lka8_O-26" value="Not Saved" style="html=1;verticalAlign=bottom;endArrow=block;edgeStyle=elbowEdgeStyle;elbow=vertical;curved=0;rounded=0;dashed=1;" parent="1" edge="1">
          <mxGeometry width="80" relative="1" as="geometry">
            <mxPoint x="488.5" y="430" as="sourcePoint" />
            <mxPoint x="289" y="430" as="targetPoint" />
            <Array as="points">
              <mxPoint x="379" y="430" />
            </Array>
          </mxGeometry>
        </mxCell>
        <mxCell id="Kt0bCvdPCDKV3a1Qo8Ne-1" value="&lt;font style=&quot;border-color: var(--border-color);&quot;&gt;&lt;b style=&quot;border-color: var(--border-color); font-size: 16px;&quot;&gt;Sequence Diagram - Senior Project Manager Update Existing Project&lt;/b&gt;&lt;/font&gt;" style="text;html=1;strokeColor=none;fillColor=none;align=center;verticalAlign=middle;whiteSpace=wrap;rounded=0;" parent="1" vertex="1">
          <mxGeometry x="119" y="570" width="610" height="30" as="geometry" />
        </mxCell>
        <mxCell id="Fw1I_hBeVLGs9wA6cDmd-1" value="UI" style="shape=umlLifeline;perimeter=lifelinePerimeter;whiteSpace=wrap;html=1;container=0;dropTarget=0;collapsible=0;recursiveResize=0;outlineConnect=0;portConstraint=eastwest;newEdgeStyle={&quot;edgeStyle&quot;:&quot;elbowEdgeStyle&quot;,&quot;elbow&quot;:&quot;vertical&quot;,&quot;curved&quot;:0,&quot;rounded&quot;:0};" parent="1" vertex="1">
          <mxGeometry x="231" y="640" width="100" height="470" as="geometry" />
        </mxCell>
        <mxCell id="Fw1I_hBeVLGs9wA6cDmd-2" value="" style="html=1;points=[];perimeter=orthogonalPerimeter;outlineConnect=0;targetShapes=umlLifeline;portConstraint=eastwest;newEdgeStyle={&quot;edgeStyle&quot;:&quot;elbowEdgeStyle&quot;,&quot;elbow&quot;:&quot;vertical&quot;,&quot;curved&quot;:0,&quot;rounded&quot;:0};" parent="Fw1I_hBeVLGs9wA6cDmd-1" vertex="1">
          <mxGeometry x="45" y="60" width="10" height="360" as="geometry" />
        </mxCell>
        <mxCell id="Fw1I_hBeVLGs9wA6cDmd-3" value="" style="shape=umlDestroy;whiteSpace=wrap;html=1;strokeWidth=3;targetShapes=umlLifeline;" parent="Fw1I_hBeVLGs9wA6cDmd-1" vertex="1">
          <mxGeometry x="40" y="450" width="20" height="20" as="geometry" />
        </mxCell>
        <mxCell id="Fw1I_hBeVLGs9wA6cDmd-4" value="Database" style="shape=umlLifeline;perimeter=lifelinePerimeter;whiteSpace=wrap;html=1;container=0;dropTarget=0;collapsible=0;recursiveResize=0;outlineConnect=0;portConstraint=eastwest;newEdgeStyle={&quot;edgeStyle&quot;:&quot;elbowEdgeStyle&quot;,&quot;elbow&quot;:&quot;vertical&quot;,&quot;curved&quot;:0,&quot;rounded&quot;:0};" parent="1" vertex="1">
          <mxGeometry x="649" y="640" width="100" height="470" as="geometry" />
        </mxCell>
        <mxCell id="Fw1I_hBeVLGs9wA6cDmd-5" value="" style="html=1;points=[];perimeter=orthogonalPerimeter;outlineConnect=0;targetShapes=umlLifeline;portConstraint=eastwest;newEdgeStyle={&quot;edgeStyle&quot;:&quot;elbowEdgeStyle&quot;,&quot;elbow&quot;:&quot;vertical&quot;,&quot;curved&quot;:0,&quot;rounded&quot;:0};" parent="Fw1I_hBeVLGs9wA6cDmd-4" vertex="1">
          <mxGeometry x="47" y="90" width="10" height="340" as="geometry" />
        </mxCell>
        <mxCell id="Fw1I_hBeVLGs9wA6cDmd-6" value="" style="shape=umlDestroy;whiteSpace=wrap;html=1;strokeWidth=3;targetShapes=umlLifeline;" parent="Fw1I_hBeVLGs9wA6cDmd-4" vertex="1">
          <mxGeometry x="40" y="450" width="20" height="20" as="geometry" />
        </mxCell>
        <mxCell id="Fw1I_hBeVLGs9wA6cDmd-7" value="" style="endArrow=none;dashed=1;html=1;rounded=0;" parent="1" target="Fw1I_hBeVLGs9wA6cDmd-8" edge="1">
          <mxGeometry width="50" height="50" relative="1" as="geometry">
            <mxPoint x="100" y="1100" as="sourcePoint" />
            <mxPoint x="101" y="730" as="targetPoint" />
          </mxGeometry>
        </mxCell>
        <mxCell id="Fw1I_hBeVLGs9wA6cDmd-8" value="Senior Project Manager" style="shape=umlActor;verticalLabelPosition=bottom;verticalAlign=top;html=1;outlineConnect=0;" parent="1" vertex="1">
          <mxGeometry x="91" y="620" width="20" height="40" as="geometry" />
        </mxCell>
        <mxCell id="Fw1I_hBeVLGs9wA6cDmd-9" value="System" style="shape=umlLifeline;perimeter=lifelinePerimeter;whiteSpace=wrap;html=1;container=0;dropTarget=0;collapsible=0;recursiveResize=0;outlineConnect=0;portConstraint=eastwest;newEdgeStyle={&quot;edgeStyle&quot;:&quot;elbowEdgeStyle&quot;,&quot;elbow&quot;:&quot;vertical&quot;,&quot;curved&quot;:0,&quot;rounded&quot;:0};size=40;" parent="1" vertex="1">
          <mxGeometry x="427" y="640" width="130" height="470" as="geometry" />
        </mxCell>
        <mxCell id="Fw1I_hBeVLGs9wA6cDmd-10" value="" style="html=1;points=[];perimeter=orthogonalPerimeter;outlineConnect=0;targetShapes=umlLifeline;portConstraint=eastwest;newEdgeStyle={&quot;edgeStyle&quot;:&quot;elbowEdgeStyle&quot;,&quot;elbow&quot;:&quot;vertical&quot;,&quot;curved&quot;:0,&quot;rounded&quot;:0};" parent="Fw1I_hBeVLGs9wA6cDmd-9" vertex="1">
          <mxGeometry x="60" y="70" width="10" height="350" as="geometry" />
        </mxCell>
        <mxCell id="Fw1I_hBeVLGs9wA6cDmd-11" value="" style="shape=umlDestroy;whiteSpace=wrap;html=1;strokeWidth=3;targetShapes=umlLifeline;" parent="Fw1I_hBeVLGs9wA6cDmd-9" vertex="1">
          <mxGeometry x="55" y="450" width="20" height="20" as="geometry" />
        </mxCell>
        <mxCell id="Fw1I_hBeVLGs9wA6cDmd-12" value="Entered Details Not Updated" style="html=1;verticalAlign=bottom;endArrow=open;dashed=1;endSize=8;edgeStyle=elbowEdgeStyle;elbow=vertical;curved=0;rounded=0;" parent="1" edge="1">
          <mxGeometry x="-0.0008" relative="1" as="geometry">
            <mxPoint x="501" y="980" as="targetPoint" />
            <Array as="points">
              <mxPoint x="551" y="980" />
              <mxPoint x="641" y="1050" />
              <mxPoint x="621" y="1040" />
              <mxPoint x="601" y="1030" />
              <mxPoint x="581" y="1020" />
              <mxPoint x="596" y="1000" />
            </Array>
            <mxPoint as="offset" />
            <mxPoint x="691" y="980" as="sourcePoint" />
          </mxGeometry>
        </mxCell>
        <mxCell id="Fw1I_hBeVLGs9wA6cDmd-13" value="" style="html=1;verticalAlign=bottom;endArrow=open;dashed=1;endSize=8;edgeStyle=elbowEdgeStyle;elbow=vertical;curved=0;rounded=0;" parent="1" edge="1">
          <mxGeometry x="-0.206" relative="1" as="geometry">
            <mxPoint x="492" y="912.5" as="targetPoint" />
            <Array as="points">
              <mxPoint x="546" y="912.5" />
              <mxPoint x="586" y="952.5" />
              <mxPoint x="566" y="942.5" />
              <mxPoint x="576" y="942.5" />
            </Array>
            <mxPoint x="691" y="912.5" as="sourcePoint" />
            <mxPoint as="offset" />
          </mxGeometry>
        </mxCell>
        <mxCell id="Fw1I_hBeVLGs9wA6cDmd-14" value="Entered Details Updated Successfully" style="edgeLabel;html=1;align=center;verticalAlign=middle;resizable=0;points=[];" parent="Fw1I_hBeVLGs9wA6cDmd-13" vertex="1" connectable="0">
          <mxGeometry x="-0.0814" y="-3" relative="1" as="geometry">
            <mxPoint y="-8" as="offset" />
          </mxGeometry>
        </mxCell>
        <mxCell id="Fw1I_hBeVLGs9wA6cDmd-15" value="Alternative" style="shape=umlFrame;whiteSpace=wrap;html=1;pointerEvents=0;" parent="1" vertex="1">
          <mxGeometry x="55" y="890" width="690" height="120" as="geometry" />
        </mxCell>
        <mxCell id="Fw1I_hBeVLGs9wA6cDmd-16" value="" style="line;strokeWidth=1;fillColor=none;align=left;verticalAlign=middle;spacingTop=-1;spacingLeft=3;spacingRight=3;rotatable=0;labelPosition=right;points=[];portConstraint=eastwest;strokeColor=inherit;" parent="1" vertex="1">
          <mxGeometry x="55" y="951.25" width="694" height="8" as="geometry" />
        </mxCell>
        <mxCell id="Fw1I_hBeVLGs9wA6cDmd-17" value="Display Project&lt;br&gt;Details Updated Successfully&amp;nbsp;" style="html=1;verticalAlign=bottom;endArrow=block;edgeStyle=elbowEdgeStyle;elbow=vertical;curved=0;rounded=0;dashed=1;" parent="1" edge="1">
          <mxGeometry y="-5" width="80" relative="1" as="geometry">
            <mxPoint x="276" y="941.25" as="sourcePoint" />
            <mxPoint x="96" y="941.25" as="targetPoint" />
            <Array as="points">
              <mxPoint x="201" y="941.25" />
            </Array>
            <mxPoint as="offset" />
          </mxGeometry>
        </mxCell>
        <mxCell id="Fw1I_hBeVLGs9wA6cDmd-18" value="Display Error Message&amp;nbsp;" style="html=1;verticalAlign=bottom;endArrow=block;edgeStyle=elbowEdgeStyle;elbow=vertical;curved=0;rounded=0;dashed=1;" parent="1" edge="1">
          <mxGeometry width="80" relative="1" as="geometry">
            <mxPoint x="270" y="995.25" as="sourcePoint" />
            <mxPoint x="100" y="995.25" as="targetPoint" />
            <mxPoint as="offset" />
          </mxGeometry>
        </mxCell>
        <mxCell id="Fw1I_hBeVLGs9wA6cDmd-19" value="&lt;span style=&quot;font-size: 10px;&quot;&gt;&lt;b&gt;[if Project Details Updated ]&lt;/b&gt;&lt;/span&gt;" style="text;html=1;strokeColor=none;fillColor=none;align=left;verticalAlign=middle;whiteSpace=wrap;rounded=0;" parent="1" vertex="1">
          <mxGeometry x="115" y="890" width="149" height="22.5" as="geometry" />
        </mxCell>
        <mxCell id="Fw1I_hBeVLGs9wA6cDmd-20" value="&lt;font style=&quot;font-size: 10px;&quot;&gt;&lt;b&gt;[else]&lt;/b&gt;&lt;/font&gt;" style="text;html=1;strokeColor=none;fillColor=none;align=left;verticalAlign=middle;whiteSpace=wrap;rounded=0;" parent="1" vertex="1">
          <mxGeometry x="56" y="959.25" width="80" height="10" as="geometry" />
        </mxCell>
        <mxCell id="Fw1I_hBeVLGs9wA6cDmd-21" value="Changed Necessary Details&amp;nbsp;" style="html=1;verticalAlign=bottom;endArrow=block;edgeStyle=elbowEdgeStyle;elbow=vertical;curved=0;rounded=0;" parent="1" edge="1">
          <mxGeometry width="80" relative="1" as="geometry">
            <mxPoint x="103" y="750" as="sourcePoint" />
            <mxPoint x="281" y="750" as="targetPoint" />
            <Array as="points">
              <mxPoint x="102" y="750" />
            </Array>
          </mxGeometry>
        </mxCell>
        <mxCell id="Fw1I_hBeVLGs9wA6cDmd-22" value="Changed Details&amp;nbsp;" style="html=1;verticalAlign=bottom;endArrow=block;edgeStyle=elbowEdgeStyle;elbow=vertical;curved=0;rounded=0;" parent="1" edge="1">
          <mxGeometry width="80" relative="1" as="geometry">
            <mxPoint x="283.75" y="800" as="sourcePoint" />
            <mxPoint x="485.25" y="800" as="targetPoint" />
            <Array as="points" />
          </mxGeometry>
        </mxCell>
        <mxCell id="Fw1I_hBeVLGs9wA6cDmd-23" value="Update Entered Details&amp;nbsp;" style="html=1;verticalAlign=bottom;endArrow=block;edgeStyle=elbowEdgeStyle;elbow=vertical;curved=0;rounded=0;" parent="1" edge="1">
          <mxGeometry width="80" relative="1" as="geometry">
            <mxPoint x="501" y="840" as="sourcePoint" />
            <mxPoint x="701" y="840" as="targetPoint" />
            <Array as="points" />
          </mxGeometry>
        </mxCell>
        <mxCell id="Fw1I_hBeVLGs9wA6cDmd-24" value="" style="html=1;verticalAlign=bottom;endArrow=open;dashed=1;endSize=8;edgeStyle=elbowEdgeStyle;elbow=vertical;curved=0;rounded=0;" parent="1" edge="1">
          <mxGeometry x="-0.206" relative="1" as="geometry">
            <mxPoint x="289" y="922.5" as="targetPoint" />
            <Array as="points">
              <mxPoint x="343" y="922.5" />
              <mxPoint x="383" y="962.5" />
              <mxPoint x="363" y="952.5" />
              <mxPoint x="373" y="952.5" />
            </Array>
            <mxPoint x="488" y="922.5" as="sourcePoint" />
            <mxPoint as="offset" />
          </mxGeometry>
        </mxCell>
        <mxCell id="Fw1I_hBeVLGs9wA6cDmd-25" value="Entered Details Updated Successfully" style="edgeLabel;html=1;align=center;verticalAlign=middle;resizable=0;points=[];" parent="Fw1I_hBeVLGs9wA6cDmd-24" vertex="1" connectable="0">
          <mxGeometry x="-0.0814" y="-3" relative="1" as="geometry">
            <mxPoint x="-7" y="-7" as="offset" />
          </mxGeometry>
        </mxCell>
        <mxCell id="Fw1I_hBeVLGs9wA6cDmd-26" value="Entered Details Not Updated&amp;nbsp;" style="html=1;verticalAlign=bottom;endArrow=open;dashed=1;endSize=8;edgeStyle=elbowEdgeStyle;elbow=vertical;curved=0;rounded=0;" parent="1" edge="1">
          <mxGeometry x="-0.0026" relative="1" as="geometry">
            <mxPoint x="291" y="990" as="targetPoint" />
            <Array as="points">
              <mxPoint x="343.5" y="990" />
              <mxPoint x="433.5" y="1060" />
              <mxPoint x="413.5" y="1050" />
              <mxPoint x="393.5" y="1040" />
              <mxPoint x="373.5" y="1030" />
              <mxPoint x="388.5" y="1010" />
            </Array>
            <mxPoint as="offset" />
            <mxPoint x="483.5" y="990" as="sourcePoint" />
          </mxGeometry>
        </mxCell>
      </root>
    </mxGraphModel>
  </diagram>
  <diagram name="2" id="fNVyxdqeLKp7g2kyJj8M">
    <mxGraphModel dx="1032" dy="580" grid="1" gridSize="10" guides="1" tooltips="1" connect="1" arrows="1" fold="1" page="1" pageScale="1" pageWidth="827" pageHeight="1169" math="0" shadow="0">
      <root>
        <mxCell id="rhTMQcQDoTTOMaCWJAwz-0" />
        <mxCell id="rhTMQcQDoTTOMaCWJAwz-1" parent="rhTMQcQDoTTOMaCWJAwz-0" />
        <mxCell id="EPhTTlT_03J22JgYhCpt-0" value="UI" style="shape=umlLifeline;perimeter=lifelinePerimeter;whiteSpace=wrap;html=1;container=0;dropTarget=0;collapsible=0;recursiveResize=0;outlineConnect=0;portConstraint=eastwest;newEdgeStyle={&quot;edgeStyle&quot;:&quot;elbowEdgeStyle&quot;,&quot;elbow&quot;:&quot;vertical&quot;,&quot;curved&quot;:0,&quot;rounded&quot;:0};fontSize=12;" vertex="1" parent="rhTMQcQDoTTOMaCWJAwz-1">
          <mxGeometry x="248" y="110" width="100" height="410" as="geometry" />
        </mxCell>
        <mxCell id="EPhTTlT_03J22JgYhCpt-1" value="" style="html=1;points=[];perimeter=orthogonalPerimeter;outlineConnect=0;targetShapes=umlLifeline;portConstraint=eastwest;newEdgeStyle={&quot;edgeStyle&quot;:&quot;elbowEdgeStyle&quot;,&quot;elbow&quot;:&quot;vertical&quot;,&quot;curved&quot;:0,&quot;rounded&quot;:0};fontSize=11;" vertex="1" parent="EPhTTlT_03J22JgYhCpt-0">
          <mxGeometry x="45" y="60" width="10" height="300" as="geometry" />
        </mxCell>
        <mxCell id="EPhTTlT_03J22JgYhCpt-2" value="" style="shape=umlDestroy;whiteSpace=wrap;html=1;strokeWidth=3;targetShapes=umlLifeline;fontSize=11;" vertex="1" parent="EPhTTlT_03J22JgYhCpt-0">
          <mxGeometry x="40" y="390" width="20" height="20" as="geometry" />
        </mxCell>
        <mxCell id="EPhTTlT_03J22JgYhCpt-3" value="Database" style="shape=umlLifeline;perimeter=lifelinePerimeter;whiteSpace=wrap;html=1;container=0;dropTarget=0;collapsible=0;recursiveResize=0;outlineConnect=0;portConstraint=eastwest;newEdgeStyle={&quot;edgeStyle&quot;:&quot;elbowEdgeStyle&quot;,&quot;elbow&quot;:&quot;vertical&quot;,&quot;curved&quot;:0,&quot;rounded&quot;:0};fontSize=12;" vertex="1" parent="rhTMQcQDoTTOMaCWJAwz-1">
          <mxGeometry x="668" y="110" width="100" height="410" as="geometry" />
        </mxCell>
        <mxCell id="EPhTTlT_03J22JgYhCpt-4" value="" style="html=1;points=[];perimeter=orthogonalPerimeter;outlineConnect=0;targetShapes=umlLifeline;portConstraint=eastwest;newEdgeStyle={&quot;edgeStyle&quot;:&quot;elbowEdgeStyle&quot;,&quot;elbow&quot;:&quot;vertical&quot;,&quot;curved&quot;:0,&quot;rounded&quot;:0};fontSize=11;" vertex="1" parent="EPhTTlT_03J22JgYhCpt-3">
          <mxGeometry x="45" y="70" width="10" height="290" as="geometry" />
        </mxCell>
        <mxCell id="EPhTTlT_03J22JgYhCpt-5" value="" style="shape=umlDestroy;whiteSpace=wrap;html=1;strokeWidth=3;targetShapes=umlLifeline;fontSize=11;" vertex="1" parent="EPhTTlT_03J22JgYhCpt-3">
          <mxGeometry x="40" y="390" width="20" height="20" as="geometry" />
        </mxCell>
        <mxCell id="EPhTTlT_03J22JgYhCpt-6" value="Details Not Saved&amp;nbsp;" style="html=1;verticalAlign=bottom;endArrow=open;dashed=1;endSize=8;edgeStyle=elbowEdgeStyle;elbow=vertical;curved=0;rounded=0;fontSize=11;" edge="1" parent="rhTMQcQDoTTOMaCWJAwz-1">
          <mxGeometry x="-0.0008" relative="1" as="geometry">
            <mxPoint x="518" y="410" as="targetPoint" />
            <Array as="points">
              <mxPoint x="568" y="410" />
              <mxPoint x="658" y="480" />
              <mxPoint x="638" y="470" />
              <mxPoint x="618" y="460" />
              <mxPoint x="598" y="450" />
              <mxPoint x="613" y="430" />
            </Array>
            <mxPoint as="offset" />
            <mxPoint x="708" y="410" as="sourcePoint" />
          </mxGeometry>
        </mxCell>
        <mxCell id="EPhTTlT_03J22JgYhCpt-7" value="&amp;nbsp;Details Saved Successfully" style="html=1;verticalAlign=bottom;endArrow=open;dashed=1;endSize=8;edgeStyle=elbowEdgeStyle;elbow=vertical;curved=0;rounded=0;fontSize=11;" edge="1" parent="rhTMQcQDoTTOMaCWJAwz-1" source="EPhTTlT_03J22JgYhCpt-4" target="EPhTTlT_03J22JgYhCpt-17">
          <mxGeometry x="-0.0653" relative="1" as="geometry">
            <mxPoint x="508" y="330" as="targetPoint" />
            <Array as="points">
              <mxPoint x="568" y="330" />
              <mxPoint x="608" y="370" />
              <mxPoint x="588" y="360" />
              <mxPoint x="598" y="360" />
            </Array>
            <mxPoint x="683" y="330" as="sourcePoint" />
            <mxPoint as="offset" />
          </mxGeometry>
        </mxCell>
        <mxCell id="EPhTTlT_03J22JgYhCpt-8" value="" style="endArrow=none;dashed=1;html=1;rounded=0;fontSize=11;" edge="1" parent="rhTMQcQDoTTOMaCWJAwz-1">
          <mxGeometry width="50" height="50" relative="1" as="geometry">
            <mxPoint x="118" y="520" as="sourcePoint" />
            <mxPoint x="120" y="170" as="targetPoint" />
          </mxGeometry>
        </mxCell>
        <mxCell id="EPhTTlT_03J22JgYhCpt-9" value="Alternative" style="shape=umlFrame;whiteSpace=wrap;html=1;pointerEvents=0;fontSize=11;" vertex="1" parent="rhTMQcQDoTTOMaCWJAwz-1">
          <mxGeometry x="68" y="309" width="680" height="140" as="geometry" />
        </mxCell>
        <mxCell id="EPhTTlT_03J22JgYhCpt-10" value="" style="line;strokeWidth=1;fillColor=none;align=left;verticalAlign=middle;spacingTop=-1;spacingLeft=3;spacingRight=3;rotatable=0;labelPosition=right;points=[];portConstraint=eastwest;strokeColor=inherit;fontSize=11;" vertex="1" parent="rhTMQcQDoTTOMaCWJAwz-1">
          <mxGeometry x="64" y="375" width="684" height="8" as="geometry" />
        </mxCell>
        <mxCell id="EPhTTlT_03J22JgYhCpt-11" value="Display Employee Added&lt;br&gt;&amp;nbsp;Successfully" style="html=1;verticalAlign=bottom;endArrow=block;edgeStyle=elbowEdgeStyle;elbow=vertical;curved=0;rounded=0;dashed=1;fontSize=11;" edge="1" parent="rhTMQcQDoTTOMaCWJAwz-1">
          <mxGeometry y="-5" width="80" relative="1" as="geometry">
            <mxPoint x="298" y="365" as="sourcePoint" />
            <mxPoint x="118" y="365" as="targetPoint" />
            <Array as="points">
              <mxPoint x="223" y="365" />
            </Array>
            <mxPoint as="offset" />
          </mxGeometry>
        </mxCell>
        <mxCell id="EPhTTlT_03J22JgYhCpt-12" value="Display Error Message" style="html=1;verticalAlign=bottom;endArrow=block;edgeStyle=elbowEdgeStyle;elbow=vertical;curved=0;rounded=0;dashed=1;fontSize=11;" edge="1" parent="rhTMQcQDoTTOMaCWJAwz-1">
          <mxGeometry width="80" relative="1" as="geometry">
            <mxPoint x="288" y="440" as="sourcePoint" />
            <mxPoint x="118" y="440" as="targetPoint" />
            <mxPoint as="offset" />
          </mxGeometry>
        </mxCell>
        <mxCell id="EPhTTlT_03J22JgYhCpt-13" value="&lt;font style=&quot;font-size: 11px;&quot;&gt;&lt;b style=&quot;font-size: 11px;&quot;&gt;[if&amp;nbsp;&lt;/b&gt;Employee&lt;b style=&quot;font-size: 11px;&quot;&gt;&amp;nbsp;Added]&lt;/b&gt;&lt;/font&gt;" style="text;html=1;strokeColor=none;fillColor=none;align=left;verticalAlign=middle;whiteSpace=wrap;rounded=0;fontSize=11;" vertex="1" parent="rhTMQcQDoTTOMaCWJAwz-1">
          <mxGeometry x="136" y="308.75" width="164" height="22.5" as="geometry" />
        </mxCell>
        <mxCell id="EPhTTlT_03J22JgYhCpt-14" value="&lt;font style=&quot;font-size: 11px;&quot;&gt;&lt;b style=&quot;font-size: 11px;&quot;&gt;[else]&lt;/b&gt;&lt;/font&gt;" style="text;html=1;strokeColor=none;fillColor=none;align=left;verticalAlign=middle;whiteSpace=wrap;rounded=0;fontSize=11;" vertex="1" parent="rhTMQcQDoTTOMaCWJAwz-1">
          <mxGeometry x="78" y="383" width="80" height="10" as="geometry" />
        </mxCell>
        <mxCell id="EPhTTlT_03J22JgYhCpt-15" value="Senior Project Manager" style="shape=umlActor;verticalLabelPosition=bottom;verticalAlign=top;html=1;outlineConnect=0;fontSize=12;" vertex="1" parent="rhTMQcQDoTTOMaCWJAwz-1">
          <mxGeometry x="110" y="100" width="18" height="40" as="geometry" />
        </mxCell>
        <mxCell id="EPhTTlT_03J22JgYhCpt-16" value="System" style="shape=umlLifeline;perimeter=lifelinePerimeter;whiteSpace=wrap;html=1;container=0;dropTarget=0;collapsible=0;recursiveResize=0;outlineConnect=0;portConstraint=eastwest;newEdgeStyle={&quot;edgeStyle&quot;:&quot;elbowEdgeStyle&quot;,&quot;elbow&quot;:&quot;vertical&quot;,&quot;curved&quot;:0,&quot;rounded&quot;:0};size=40;fontSize=12;" vertex="1" parent="rhTMQcQDoTTOMaCWJAwz-1">
          <mxGeometry x="444" y="110" width="130" height="410" as="geometry" />
        </mxCell>
        <mxCell id="EPhTTlT_03J22JgYhCpt-17" value="" style="html=1;points=[];perimeter=orthogonalPerimeter;outlineConnect=0;targetShapes=umlLifeline;portConstraint=eastwest;newEdgeStyle={&quot;edgeStyle&quot;:&quot;elbowEdgeStyle&quot;,&quot;elbow&quot;:&quot;vertical&quot;,&quot;curved&quot;:0,&quot;rounded&quot;:0};fontSize=11;" vertex="1" parent="EPhTTlT_03J22JgYhCpt-16">
          <mxGeometry x="60" y="70" width="10" height="290" as="geometry" />
        </mxCell>
        <mxCell id="EPhTTlT_03J22JgYhCpt-18" value="" style="shape=umlDestroy;whiteSpace=wrap;html=1;strokeWidth=3;targetShapes=umlLifeline;fontSize=11;" vertex="1" parent="EPhTTlT_03J22JgYhCpt-16">
          <mxGeometry x="55" y="390" width="20" height="20" as="geometry" />
        </mxCell>
        <mxCell id="EPhTTlT_03J22JgYhCpt-19" value="Saved Successfully" style="html=1;verticalAlign=bottom;endArrow=open;dashed=1;endSize=8;edgeStyle=elbowEdgeStyle;elbow=vertical;curved=0;rounded=0;fontSize=11;" edge="1" parent="rhTMQcQDoTTOMaCWJAwz-1">
          <mxGeometry relative="1" as="geometry">
            <mxPoint x="298" y="350" as="targetPoint" />
            <Array as="points">
              <mxPoint x="363" y="350" />
              <mxPoint x="403" y="390" />
              <mxPoint x="383" y="380" />
              <mxPoint x="393" y="380" />
            </Array>
            <mxPoint x="498" y="350" as="sourcePoint" />
          </mxGeometry>
        </mxCell>
        <mxCell id="EPhTTlT_03J22JgYhCpt-20" value="Saved Not Saved" style="html=1;verticalAlign=bottom;endArrow=open;dashed=1;endSize=8;edgeStyle=elbowEdgeStyle;elbow=vertical;curved=0;rounded=0;fontSize=11;" edge="1" parent="rhTMQcQDoTTOMaCWJAwz-1">
          <mxGeometry relative="1" as="geometry">
            <mxPoint x="298" y="420" as="targetPoint" />
            <Array as="points">
              <mxPoint x="363" y="420" />
              <mxPoint x="403" y="460" />
              <mxPoint x="383" y="450" />
              <mxPoint x="393" y="450" />
            </Array>
            <mxPoint x="498" y="420" as="sourcePoint" />
            <mxPoint as="offset" />
          </mxGeometry>
        </mxCell>
        <mxCell id="EPhTTlT_03J22JgYhCpt-21" value="Add Employee &amp;amp; Click Save" style="html=1;verticalAlign=bottom;endArrow=block;edgeStyle=elbowEdgeStyle;elbow=vertical;curved=0;rounded=0;fontSize=11;" edge="1" parent="rhTMQcQDoTTOMaCWJAwz-1">
          <mxGeometry width="80" relative="1" as="geometry">
            <mxPoint x="120" y="220" as="sourcePoint" />
            <mxPoint x="296" y="220" as="targetPoint" />
          </mxGeometry>
        </mxCell>
        <mxCell id="EPhTTlT_03J22JgYhCpt-22" value="Added Employee&amp;nbsp;" style="html=1;verticalAlign=bottom;endArrow=block;edgeStyle=elbowEdgeStyle;elbow=vertical;curved=0;rounded=0;fontSize=11;" edge="1" parent="rhTMQcQDoTTOMaCWJAwz-1">
          <mxGeometry width="80" relative="1" as="geometry">
            <mxPoint x="303" y="250" as="sourcePoint" />
            <mxPoint x="503" y="250" as="targetPoint" />
          </mxGeometry>
        </mxCell>
        <mxCell id="EPhTTlT_03J22JgYhCpt-23" value="Saved Added Employee&amp;nbsp;" style="html=1;verticalAlign=bottom;endArrow=block;edgeStyle=elbowEdgeStyle;elbow=horizontal;curved=0;rounded=0;fontSize=11;" edge="1" parent="rhTMQcQDoTTOMaCWJAwz-1">
          <mxGeometry width="80" relative="1" as="geometry">
            <mxPoint x="510" y="280" as="sourcePoint" />
            <mxPoint x="710" y="280" as="targetPoint" />
            <mxPoint as="offset" />
          </mxGeometry>
        </mxCell>
        <mxCell id="EPhTTlT_03J22JgYhCpt-24" value="&lt;h2&gt;&lt;font style=&quot;font-size: 16px;&quot;&gt;Sequence Diagram - Senior Project Manager Add Employees to the Project&amp;nbsp;&lt;/font&gt;&lt;/h2&gt;" style="text;whiteSpace=wrap;html=1;" vertex="1" parent="rhTMQcQDoTTOMaCWJAwz-1">
          <mxGeometry x="158" y="20" width="582" height="40" as="geometry" />
        </mxCell>
        <mxCell id="EPhTTlT_03J22JgYhCpt-25" value="UI" style="shape=umlLifeline;perimeter=lifelinePerimeter;whiteSpace=wrap;html=1;container=0;dropTarget=0;collapsible=0;recursiveResize=0;outlineConnect=0;portConstraint=eastwest;newEdgeStyle={&quot;edgeStyle&quot;:&quot;elbowEdgeStyle&quot;,&quot;elbow&quot;:&quot;vertical&quot;,&quot;curved&quot;:0,&quot;rounded&quot;:0};fontSize=12;" vertex="1" parent="rhTMQcQDoTTOMaCWJAwz-1">
          <mxGeometry x="237" y="600" width="100" height="470" as="geometry" />
        </mxCell>
        <mxCell id="EPhTTlT_03J22JgYhCpt-26" value="" style="html=1;points=[];perimeter=orthogonalPerimeter;outlineConnect=0;targetShapes=umlLifeline;portConstraint=eastwest;newEdgeStyle={&quot;edgeStyle&quot;:&quot;elbowEdgeStyle&quot;,&quot;elbow&quot;:&quot;vertical&quot;,&quot;curved&quot;:0,&quot;rounded&quot;:0};fontSize=11;" vertex="1" parent="EPhTTlT_03J22JgYhCpt-25">
          <mxGeometry x="45" y="60" width="10" height="360" as="geometry" />
        </mxCell>
        <mxCell id="EPhTTlT_03J22JgYhCpt-27" value="" style="shape=umlDestroy;whiteSpace=wrap;html=1;strokeWidth=3;targetShapes=umlLifeline;fontSize=12;" vertex="1" parent="EPhTTlT_03J22JgYhCpt-25">
          <mxGeometry x="40" y="450" width="20" height="20" as="geometry" />
        </mxCell>
        <mxCell id="EPhTTlT_03J22JgYhCpt-28" value="Database" style="shape=umlLifeline;perimeter=lifelinePerimeter;whiteSpace=wrap;html=1;container=0;dropTarget=0;collapsible=0;recursiveResize=0;outlineConnect=0;portConstraint=eastwest;newEdgeStyle={&quot;edgeStyle&quot;:&quot;elbowEdgeStyle&quot;,&quot;elbow&quot;:&quot;vertical&quot;,&quot;curved&quot;:0,&quot;rounded&quot;:0};fontSize=12;" vertex="1" parent="rhTMQcQDoTTOMaCWJAwz-1">
          <mxGeometry x="655" y="600" width="100" height="470" as="geometry" />
        </mxCell>
        <mxCell id="EPhTTlT_03J22JgYhCpt-29" value="" style="html=1;points=[];perimeter=orthogonalPerimeter;outlineConnect=0;targetShapes=umlLifeline;portConstraint=eastwest;newEdgeStyle={&quot;edgeStyle&quot;:&quot;elbowEdgeStyle&quot;,&quot;elbow&quot;:&quot;vertical&quot;,&quot;curved&quot;:0,&quot;rounded&quot;:0};fontSize=11;" vertex="1" parent="EPhTTlT_03J22JgYhCpt-28">
          <mxGeometry x="47" y="90" width="10" height="340" as="geometry" />
        </mxCell>
        <mxCell id="EPhTTlT_03J22JgYhCpt-30" value="" style="shape=umlDestroy;whiteSpace=wrap;html=1;strokeWidth=3;targetShapes=umlLifeline;fontSize=12;" vertex="1" parent="EPhTTlT_03J22JgYhCpt-28">
          <mxGeometry x="40" y="450" width="20" height="20" as="geometry" />
        </mxCell>
        <mxCell id="EPhTTlT_03J22JgYhCpt-31" value="" style="endArrow=none;dashed=1;html=1;rounded=0;fontSize=11;" edge="1" parent="rhTMQcQDoTTOMaCWJAwz-1" target="EPhTTlT_03J22JgYhCpt-32">
          <mxGeometry width="50" height="50" relative="1" as="geometry">
            <mxPoint x="106" y="1060" as="sourcePoint" />
            <mxPoint x="107" y="690" as="targetPoint" />
          </mxGeometry>
        </mxCell>
        <mxCell id="EPhTTlT_03J22JgYhCpt-32" value="Senior Project Manager" style="shape=umlActor;verticalLabelPosition=bottom;verticalAlign=top;html=1;outlineConnect=0;fontSize=12;" vertex="1" parent="rhTMQcQDoTTOMaCWJAwz-1">
          <mxGeometry x="97" y="580" width="20" height="40" as="geometry" />
        </mxCell>
        <mxCell id="EPhTTlT_03J22JgYhCpt-33" value="System" style="shape=umlLifeline;perimeter=lifelinePerimeter;whiteSpace=wrap;html=1;container=0;dropTarget=0;collapsible=0;recursiveResize=0;outlineConnect=0;portConstraint=eastwest;newEdgeStyle={&quot;edgeStyle&quot;:&quot;elbowEdgeStyle&quot;,&quot;elbow&quot;:&quot;vertical&quot;,&quot;curved&quot;:0,&quot;rounded&quot;:0};size=40;fontSize=12;" vertex="1" parent="rhTMQcQDoTTOMaCWJAwz-1">
          <mxGeometry x="433" y="600" width="130" height="470" as="geometry" />
        </mxCell>
        <mxCell id="EPhTTlT_03J22JgYhCpt-34" value="" style="html=1;points=[];perimeter=orthogonalPerimeter;outlineConnect=0;targetShapes=umlLifeline;portConstraint=eastwest;newEdgeStyle={&quot;edgeStyle&quot;:&quot;elbowEdgeStyle&quot;,&quot;elbow&quot;:&quot;vertical&quot;,&quot;curved&quot;:0,&quot;rounded&quot;:0};fontSize=11;" vertex="1" parent="EPhTTlT_03J22JgYhCpt-33">
          <mxGeometry x="60" y="70" width="10" height="350" as="geometry" />
        </mxCell>
        <mxCell id="EPhTTlT_03J22JgYhCpt-35" value="" style="shape=umlDestroy;whiteSpace=wrap;html=1;strokeWidth=3;targetShapes=umlLifeline;fontSize=12;" vertex="1" parent="EPhTTlT_03J22JgYhCpt-33">
          <mxGeometry x="55" y="450" width="20" height="20" as="geometry" />
        </mxCell>
        <mxCell id="EPhTTlT_03J22JgYhCpt-36" value="Entered Details Not Updated" style="html=1;verticalAlign=bottom;endArrow=open;dashed=1;endSize=8;edgeStyle=elbowEdgeStyle;elbow=vertical;curved=0;rounded=0;fontSize=11;" edge="1" parent="rhTMQcQDoTTOMaCWJAwz-1">
          <mxGeometry x="-0.0008" relative="1" as="geometry">
            <mxPoint x="507" y="940" as="targetPoint" />
            <Array as="points">
              <mxPoint x="557" y="940" />
              <mxPoint x="647" y="1010" />
              <mxPoint x="627" y="1000" />
              <mxPoint x="607" y="990" />
              <mxPoint x="587" y="980" />
              <mxPoint x="602" y="960" />
            </Array>
            <mxPoint as="offset" />
            <mxPoint x="697" y="940" as="sourcePoint" />
          </mxGeometry>
        </mxCell>
        <mxCell id="EPhTTlT_03J22JgYhCpt-37" value="" style="html=1;verticalAlign=bottom;endArrow=open;dashed=1;endSize=8;edgeStyle=elbowEdgeStyle;elbow=vertical;curved=0;rounded=0;fontSize=11;" edge="1" parent="rhTMQcQDoTTOMaCWJAwz-1">
          <mxGeometry x="-0.206" relative="1" as="geometry">
            <mxPoint x="498" y="872.5" as="targetPoint" />
            <Array as="points">
              <mxPoint x="552" y="872.5" />
              <mxPoint x="592" y="912.5" />
              <mxPoint x="572" y="902.5" />
              <mxPoint x="582" y="902.5" />
            </Array>
            <mxPoint x="697" y="872.5" as="sourcePoint" />
            <mxPoint as="offset" />
          </mxGeometry>
        </mxCell>
        <mxCell id="EPhTTlT_03J22JgYhCpt-38" value="Entered Details Update Successfully" style="edgeLabel;html=1;align=center;verticalAlign=middle;resizable=0;points=[];fontSize=11;" vertex="1" connectable="0" parent="EPhTTlT_03J22JgYhCpt-37">
          <mxGeometry x="-0.0814" y="-3" relative="1" as="geometry">
            <mxPoint y="-8" as="offset" />
          </mxGeometry>
        </mxCell>
        <mxCell id="EPhTTlT_03J22JgYhCpt-39" value="Alternative" style="shape=umlFrame;whiteSpace=wrap;html=1;pointerEvents=0;fontSize=11;" vertex="1" parent="rhTMQcQDoTTOMaCWJAwz-1">
          <mxGeometry x="61" y="850" width="690" height="120" as="geometry" />
        </mxCell>
        <mxCell id="EPhTTlT_03J22JgYhCpt-40" value="" style="line;strokeWidth=1;fillColor=none;align=left;verticalAlign=middle;spacingTop=-1;spacingLeft=3;spacingRight=3;rotatable=0;labelPosition=right;points=[];portConstraint=eastwest;strokeColor=inherit;fontSize=11;" vertex="1" parent="rhTMQcQDoTTOMaCWJAwz-1">
          <mxGeometry x="61" y="911.25" width="694" height="8" as="geometry" />
        </mxCell>
        <mxCell id="EPhTTlT_03J22JgYhCpt-41" value="Display Employee&lt;br style=&quot;font-size: 11px;&quot;&gt;Details Updated Successfully&amp;nbsp;" style="html=1;verticalAlign=bottom;endArrow=block;edgeStyle=elbowEdgeStyle;elbow=vertical;curved=0;rounded=0;dashed=1;fontSize=11;" edge="1" parent="rhTMQcQDoTTOMaCWJAwz-1">
          <mxGeometry y="-5" width="80" relative="1" as="geometry">
            <mxPoint x="282" y="901.25" as="sourcePoint" />
            <mxPoint x="102" y="901.25" as="targetPoint" />
            <Array as="points">
              <mxPoint x="207" y="901.25" />
            </Array>
            <mxPoint as="offset" />
          </mxGeometry>
        </mxCell>
        <mxCell id="EPhTTlT_03J22JgYhCpt-42" value="Display Error Message&amp;nbsp;" style="html=1;verticalAlign=bottom;endArrow=block;edgeStyle=elbowEdgeStyle;elbow=vertical;curved=0;rounded=0;dashed=1;fontSize=11;" edge="1" parent="rhTMQcQDoTTOMaCWJAwz-1">
          <mxGeometry width="80" relative="1" as="geometry">
            <mxPoint x="276" y="955.25" as="sourcePoint" />
            <mxPoint x="106" y="955.25" as="targetPoint" />
            <mxPoint as="offset" />
          </mxGeometry>
        </mxCell>
        <mxCell id="EPhTTlT_03J22JgYhCpt-43" value="&lt;span style=&quot;font-size: 11px;&quot;&gt;&lt;b style=&quot;font-size: 11px;&quot;&gt;[if Employee Details Updated ]&lt;/b&gt;&lt;/span&gt;" style="text;html=1;strokeColor=none;fillColor=none;align=left;verticalAlign=middle;whiteSpace=wrap;rounded=0;fontSize=11;" vertex="1" parent="rhTMQcQDoTTOMaCWJAwz-1">
          <mxGeometry x="117" y="850" width="179" height="22.5" as="geometry" />
        </mxCell>
        <mxCell id="EPhTTlT_03J22JgYhCpt-44" value="&lt;font style=&quot;font-size: 11px;&quot;&gt;&lt;b style=&quot;font-size: 11px;&quot;&gt;[else]&lt;/b&gt;&lt;/font&gt;" style="text;html=1;strokeColor=none;fillColor=none;align=left;verticalAlign=middle;whiteSpace=wrap;rounded=0;fontSize=11;" vertex="1" parent="rhTMQcQDoTTOMaCWJAwz-1">
          <mxGeometry x="62" y="919.25" width="80" height="10" as="geometry" />
        </mxCell>
        <mxCell id="EPhTTlT_03J22JgYhCpt-45" value="Changed Necessary Details&amp;nbsp;" style="html=1;verticalAlign=bottom;endArrow=block;edgeStyle=elbowEdgeStyle;elbow=vertical;curved=0;rounded=0;fontSize=11;" edge="1" parent="rhTMQcQDoTTOMaCWJAwz-1">
          <mxGeometry width="80" relative="1" as="geometry">
            <mxPoint x="109" y="710" as="sourcePoint" />
            <mxPoint x="287" y="710" as="targetPoint" />
            <Array as="points">
              <mxPoint x="108" y="710" />
            </Array>
          </mxGeometry>
        </mxCell>
        <mxCell id="EPhTTlT_03J22JgYhCpt-46" value="Changed Details&amp;nbsp;" style="html=1;verticalAlign=bottom;endArrow=block;edgeStyle=elbowEdgeStyle;elbow=vertical;curved=0;rounded=0;fontSize=11;" edge="1" parent="rhTMQcQDoTTOMaCWJAwz-1">
          <mxGeometry width="80" relative="1" as="geometry">
            <mxPoint x="289.75" y="760" as="sourcePoint" />
            <mxPoint x="491.25" y="760" as="targetPoint" />
            <Array as="points" />
          </mxGeometry>
        </mxCell>
        <mxCell id="EPhTTlT_03J22JgYhCpt-47" value="Update Entered Details&amp;nbsp;" style="html=1;verticalAlign=bottom;endArrow=block;edgeStyle=elbowEdgeStyle;elbow=vertical;curved=0;rounded=0;fontSize=11;" edge="1" parent="rhTMQcQDoTTOMaCWJAwz-1">
          <mxGeometry width="80" relative="1" as="geometry">
            <mxPoint x="507" y="800" as="sourcePoint" />
            <mxPoint x="707" y="800" as="targetPoint" />
            <Array as="points" />
          </mxGeometry>
        </mxCell>
        <mxCell id="EPhTTlT_03J22JgYhCpt-48" value="" style="html=1;verticalAlign=bottom;endArrow=open;dashed=1;endSize=8;edgeStyle=elbowEdgeStyle;elbow=vertical;curved=0;rounded=0;fontSize=11;" edge="1" parent="rhTMQcQDoTTOMaCWJAwz-1">
          <mxGeometry x="-0.206" relative="1" as="geometry">
            <mxPoint x="295" y="882.5" as="targetPoint" />
            <Array as="points">
              <mxPoint x="349" y="882.5" />
              <mxPoint x="389" y="922.5" />
              <mxPoint x="369" y="912.5" />
              <mxPoint x="379" y="912.5" />
            </Array>
            <mxPoint x="494" y="882.5" as="sourcePoint" />
            <mxPoint as="offset" />
          </mxGeometry>
        </mxCell>
        <mxCell id="EPhTTlT_03J22JgYhCpt-49" value="Entered Details Update Successfully" style="edgeLabel;html=1;align=center;verticalAlign=middle;resizable=0;points=[];fontSize=11;" vertex="1" connectable="0" parent="EPhTTlT_03J22JgYhCpt-48">
          <mxGeometry x="-0.0814" y="-3" relative="1" as="geometry">
            <mxPoint x="-13" y="-7" as="offset" />
          </mxGeometry>
        </mxCell>
        <mxCell id="EPhTTlT_03J22JgYhCpt-50" value="Entered Details Not Updated" style="html=1;verticalAlign=bottom;endArrow=open;dashed=1;endSize=8;edgeStyle=elbowEdgeStyle;elbow=vertical;curved=0;rounded=0;fontSize=11;" edge="1" parent="rhTMQcQDoTTOMaCWJAwz-1">
          <mxGeometry x="-0.0008" relative="1" as="geometry">
            <mxPoint x="297" y="950" as="targetPoint" />
            <Array as="points">
              <mxPoint x="349.5" y="950" />
              <mxPoint x="439.5" y="1020" />
              <mxPoint x="419.5" y="1010" />
              <mxPoint x="399.5" y="1000" />
              <mxPoint x="379.5" y="990" />
              <mxPoint x="394.5" y="970" />
            </Array>
            <mxPoint as="offset" />
            <mxPoint x="489.5" y="950" as="sourcePoint" />
          </mxGeometry>
        </mxCell>
        <mxCell id="EPhTTlT_03J22JgYhCpt-51" value="&lt;h2&gt;&lt;font style=&quot;font-size: 16px;&quot;&gt;Sequence Diagram - Senior Project Manager Update Existing Employees in the Project&amp;nbsp;&lt;/font&gt;&lt;/h2&gt;" style="text;whiteSpace=wrap;html=1;" vertex="1" parent="rhTMQcQDoTTOMaCWJAwz-1">
          <mxGeometry x="85" y="530" width="670" height="40" as="geometry" />
        </mxCell>
      </root>
    </mxGraphModel>
  </diagram>
  <diagram id="WgwOieu-sodoENFNJw-_" name="3">
    <mxGraphModel dx="1032" dy="580" grid="1" gridSize="10" guides="1" tooltips="1" connect="1" arrows="1" fold="1" page="1" pageScale="1" pageWidth="827" pageHeight="1169" math="0" shadow="0">
      <root>
        <mxCell id="0" />
        <mxCell id="1" parent="0" />
        <mxCell id="mJexa9bztp8b54fikfIW-1" value="&lt;font style=&quot;font-size: 12px;&quot;&gt;UI&lt;/font&gt;" style="shape=umlLifeline;perimeter=lifelinePerimeter;whiteSpace=wrap;html=1;container=0;dropTarget=0;collapsible=0;recursiveResize=0;outlineConnect=0;portConstraint=eastwest;newEdgeStyle={&quot;edgeStyle&quot;:&quot;elbowEdgeStyle&quot;,&quot;elbow&quot;:&quot;vertical&quot;,&quot;curved&quot;:0,&quot;rounded&quot;:0};fontSize=11;" vertex="1" parent="1">
          <mxGeometry x="248" y="110" width="100" height="410" as="geometry" />
        </mxCell>
        <mxCell id="mJexa9bztp8b54fikfIW-2" value="" style="html=1;points=[];perimeter=orthogonalPerimeter;outlineConnect=0;targetShapes=umlLifeline;portConstraint=eastwest;newEdgeStyle={&quot;edgeStyle&quot;:&quot;elbowEdgeStyle&quot;,&quot;elbow&quot;:&quot;vertical&quot;,&quot;curved&quot;:0,&quot;rounded&quot;:0};fontSize=11;" vertex="1" parent="mJexa9bztp8b54fikfIW-1">
          <mxGeometry x="45" y="60" width="10" height="300" as="geometry" />
        </mxCell>
        <mxCell id="mJexa9bztp8b54fikfIW-3" value="" style="shape=umlDestroy;whiteSpace=wrap;html=1;strokeWidth=3;targetShapes=umlLifeline;fontSize=11;" vertex="1" parent="mJexa9bztp8b54fikfIW-1">
          <mxGeometry x="40" y="390" width="20" height="20" as="geometry" />
        </mxCell>
        <mxCell id="mJexa9bztp8b54fikfIW-4" value="Database" style="shape=umlLifeline;perimeter=lifelinePerimeter;whiteSpace=wrap;html=1;container=0;dropTarget=0;collapsible=0;recursiveResize=0;outlineConnect=0;portConstraint=eastwest;newEdgeStyle={&quot;edgeStyle&quot;:&quot;elbowEdgeStyle&quot;,&quot;elbow&quot;:&quot;vertical&quot;,&quot;curved&quot;:0,&quot;rounded&quot;:0};fontSize=12;" vertex="1" parent="1">
          <mxGeometry x="668" y="110" width="100" height="410" as="geometry" />
        </mxCell>
        <mxCell id="mJexa9bztp8b54fikfIW-5" value="" style="html=1;points=[];perimeter=orthogonalPerimeter;outlineConnect=0;targetShapes=umlLifeline;portConstraint=eastwest;newEdgeStyle={&quot;edgeStyle&quot;:&quot;elbowEdgeStyle&quot;,&quot;elbow&quot;:&quot;vertical&quot;,&quot;curved&quot;:0,&quot;rounded&quot;:0};fontSize=11;" vertex="1" parent="mJexa9bztp8b54fikfIW-4">
          <mxGeometry x="45" y="70" width="10" height="290" as="geometry" />
        </mxCell>
        <mxCell id="mJexa9bztp8b54fikfIW-6" value="" style="shape=umlDestroy;whiteSpace=wrap;html=1;strokeWidth=3;targetShapes=umlLifeline;fontSize=11;" vertex="1" parent="mJexa9bztp8b54fikfIW-4">
          <mxGeometry x="40" y="390" width="20" height="20" as="geometry" />
        </mxCell>
        <mxCell id="mJexa9bztp8b54fikfIW-7" value="Material Details Not Saved" style="html=1;verticalAlign=bottom;endArrow=open;dashed=1;endSize=8;edgeStyle=elbowEdgeStyle;elbow=vertical;curved=0;rounded=0;fontSize=11;" edge="1" parent="1">
          <mxGeometry x="-0.0008" relative="1" as="geometry">
            <mxPoint x="518" y="410" as="targetPoint" />
            <Array as="points">
              <mxPoint x="568" y="410" />
              <mxPoint x="658" y="480" />
              <mxPoint x="638" y="470" />
              <mxPoint x="618" y="460" />
              <mxPoint x="598" y="450" />
              <mxPoint x="613" y="430" />
            </Array>
            <mxPoint as="offset" />
            <mxPoint x="708" y="410" as="sourcePoint" />
          </mxGeometry>
        </mxCell>
        <mxCell id="mJexa9bztp8b54fikfIW-8" value="Material Details Saved Successfully" style="html=1;verticalAlign=bottom;endArrow=open;dashed=1;endSize=8;edgeStyle=elbowEdgeStyle;elbow=vertical;curved=0;rounded=0;fontSize=11;" edge="1" parent="1" source="mJexa9bztp8b54fikfIW-5" target="mJexa9bztp8b54fikfIW-18">
          <mxGeometry x="-0.0653" y="-5" relative="1" as="geometry">
            <mxPoint x="508" y="330" as="targetPoint" />
            <Array as="points">
              <mxPoint x="568" y="330" />
              <mxPoint x="608" y="370" />
              <mxPoint x="588" y="360" />
              <mxPoint x="598" y="360" />
            </Array>
            <mxPoint x="683" y="330" as="sourcePoint" />
            <mxPoint as="offset" />
          </mxGeometry>
        </mxCell>
        <mxCell id="mJexa9bztp8b54fikfIW-9" value="" style="endArrow=none;dashed=1;html=1;rounded=0;fontSize=11;" edge="1" parent="1">
          <mxGeometry width="50" height="50" relative="1" as="geometry">
            <mxPoint x="118" y="520" as="sourcePoint" />
            <mxPoint x="120" y="170" as="targetPoint" />
          </mxGeometry>
        </mxCell>
        <mxCell id="mJexa9bztp8b54fikfIW-10" value="Alternative" style="shape=umlFrame;whiteSpace=wrap;html=1;pointerEvents=0;fontSize=11;" vertex="1" parent="1">
          <mxGeometry x="68" y="309" width="680" height="140" as="geometry" />
        </mxCell>
        <mxCell id="mJexa9bztp8b54fikfIW-11" value="" style="line;strokeWidth=1;fillColor=none;align=left;verticalAlign=middle;spacingTop=-1;spacingLeft=3;spacingRight=3;rotatable=0;labelPosition=right;points=[];portConstraint=eastwest;strokeColor=inherit;fontSize=11;" vertex="1" parent="1">
          <mxGeometry x="64" y="375" width="684" height="8" as="geometry" />
        </mxCell>
        <mxCell id="mJexa9bztp8b54fikfIW-12" value="Display Material&amp;nbsp;Added&lt;br&gt;&amp;nbsp;to the project Successfully" style="html=1;verticalAlign=bottom;endArrow=block;edgeStyle=elbowEdgeStyle;elbow=vertical;curved=0;rounded=0;dashed=1;fontSize=11;" edge="1" parent="1">
          <mxGeometry y="-5" width="80" relative="1" as="geometry">
            <mxPoint x="298" y="365" as="sourcePoint" />
            <mxPoint x="118" y="365" as="targetPoint" />
            <Array as="points">
              <mxPoint x="223" y="365" />
            </Array>
            <mxPoint as="offset" />
          </mxGeometry>
        </mxCell>
        <mxCell id="mJexa9bztp8b54fikfIW-13" value="Display Error Message" style="html=1;verticalAlign=bottom;endArrow=block;edgeStyle=elbowEdgeStyle;elbow=vertical;curved=0;rounded=0;dashed=1;fontSize=11;" edge="1" parent="1">
          <mxGeometry width="80" relative="1" as="geometry">
            <mxPoint x="288" y="440" as="sourcePoint" />
            <mxPoint x="118" y="440" as="targetPoint" />
            <mxPoint as="offset" />
          </mxGeometry>
        </mxCell>
        <mxCell id="mJexa9bztp8b54fikfIW-14" value="&lt;b style=&quot;font-size: 11px;&quot;&gt;[if&amp;nbsp;&lt;/b&gt;&lt;span style=&quot;font-size: 11px;&quot;&gt;&lt;b style=&quot;font-size: 11px;&quot;&gt;Material&lt;/b&gt;&lt;/span&gt;&lt;b style=&quot;font-size: 11px;&quot;&gt;&amp;nbsp;Details Added]&lt;/b&gt;" style="text;html=1;strokeColor=none;fillColor=none;align=left;verticalAlign=middle;whiteSpace=wrap;rounded=0;fontSize=11;" vertex="1" parent="1">
          <mxGeometry x="136" y="308.75" width="154" height="22.5" as="geometry" />
        </mxCell>
        <mxCell id="mJexa9bztp8b54fikfIW-15" value="&lt;font style=&quot;font-size: 11px;&quot;&gt;&lt;b style=&quot;font-size: 11px;&quot;&gt;[else]&lt;/b&gt;&lt;/font&gt;" style="text;html=1;strokeColor=none;fillColor=none;align=left;verticalAlign=middle;whiteSpace=wrap;rounded=0;fontSize=11;" vertex="1" parent="1">
          <mxGeometry x="78" y="383" width="80" height="10" as="geometry" />
        </mxCell>
        <mxCell id="mJexa9bztp8b54fikfIW-16" value="&lt;font style=&quot;font-size: 12px;&quot;&gt;Senior Project Manager&lt;/font&gt;" style="shape=umlActor;verticalLabelPosition=bottom;verticalAlign=top;html=1;outlineConnect=0;fontSize=11;" vertex="1" parent="1">
          <mxGeometry x="110" y="100" width="18" height="40" as="geometry" />
        </mxCell>
        <mxCell id="mJexa9bztp8b54fikfIW-17" value="&lt;font style=&quot;font-size: 12px;&quot;&gt;System&lt;/font&gt;" style="shape=umlLifeline;perimeter=lifelinePerimeter;whiteSpace=wrap;html=1;container=0;dropTarget=0;collapsible=0;recursiveResize=0;outlineConnect=0;portConstraint=eastwest;newEdgeStyle={&quot;edgeStyle&quot;:&quot;elbowEdgeStyle&quot;,&quot;elbow&quot;:&quot;vertical&quot;,&quot;curved&quot;:0,&quot;rounded&quot;:0};size=40;fontSize=11;" vertex="1" parent="1">
          <mxGeometry x="444" y="110" width="130" height="410" as="geometry" />
        </mxCell>
        <mxCell id="mJexa9bztp8b54fikfIW-18" value="" style="html=1;points=[];perimeter=orthogonalPerimeter;outlineConnect=0;targetShapes=umlLifeline;portConstraint=eastwest;newEdgeStyle={&quot;edgeStyle&quot;:&quot;elbowEdgeStyle&quot;,&quot;elbow&quot;:&quot;vertical&quot;,&quot;curved&quot;:0,&quot;rounded&quot;:0};fontSize=11;" vertex="1" parent="mJexa9bztp8b54fikfIW-17">
          <mxGeometry x="60" y="70" width="10" height="290" as="geometry" />
        </mxCell>
        <mxCell id="mJexa9bztp8b54fikfIW-19" value="" style="shape=umlDestroy;whiteSpace=wrap;html=1;strokeWidth=3;targetShapes=umlLifeline;fontSize=11;" vertex="1" parent="mJexa9bztp8b54fikfIW-17">
          <mxGeometry x="55" y="390" width="20" height="20" as="geometry" />
        </mxCell>
        <mxCell id="mJexa9bztp8b54fikfIW-20" value="Saved Successfully" style="html=1;verticalAlign=bottom;endArrow=open;dashed=1;endSize=8;edgeStyle=elbowEdgeStyle;elbow=vertical;curved=0;rounded=0;fontSize=11;" edge="1" parent="1">
          <mxGeometry relative="1" as="geometry">
            <mxPoint x="298" y="350" as="targetPoint" />
            <Array as="points">
              <mxPoint x="363" y="350" />
              <mxPoint x="403" y="390" />
              <mxPoint x="383" y="380" />
              <mxPoint x="393" y="380" />
            </Array>
            <mxPoint x="498" y="350" as="sourcePoint" />
          </mxGeometry>
        </mxCell>
        <mxCell id="mJexa9bztp8b54fikfIW-21" value="&amp;nbsp;Not Saved" style="html=1;verticalAlign=bottom;endArrow=open;dashed=1;endSize=8;edgeStyle=elbowEdgeStyle;elbow=vertical;curved=0;rounded=0;fontSize=11;" edge="1" parent="1">
          <mxGeometry relative="1" as="geometry">
            <mxPoint x="298" y="420" as="targetPoint" />
            <Array as="points">
              <mxPoint x="363" y="420" />
              <mxPoint x="403" y="460" />
              <mxPoint x="383" y="450" />
              <mxPoint x="393" y="450" />
            </Array>
            <mxPoint x="498" y="420" as="sourcePoint" />
          </mxGeometry>
        </mxCell>
        <mxCell id="mJexa9bztp8b54fikfIW-22" value="Add Matrial Details &amp;amp; Click Save" style="html=1;verticalAlign=bottom;endArrow=block;edgeStyle=elbowEdgeStyle;elbow=vertical;curved=0;rounded=0;fontSize=11;" edge="1" parent="1">
          <mxGeometry width="80" relative="1" as="geometry">
            <mxPoint x="120" y="220" as="sourcePoint" />
            <mxPoint x="296" y="220" as="targetPoint" />
          </mxGeometry>
        </mxCell>
        <mxCell id="mJexa9bztp8b54fikfIW-23" value="Add Material Details" style="html=1;verticalAlign=bottom;endArrow=block;edgeStyle=elbowEdgeStyle;elbow=vertical;curved=0;rounded=0;fontSize=11;" edge="1" parent="1">
          <mxGeometry width="80" relative="1" as="geometry">
            <mxPoint x="303" y="250" as="sourcePoint" />
            <mxPoint x="503" y="250" as="targetPoint" />
          </mxGeometry>
        </mxCell>
        <mxCell id="mJexa9bztp8b54fikfIW-24" value="Saved Material Details&amp;nbsp;" style="html=1;verticalAlign=bottom;endArrow=block;edgeStyle=elbowEdgeStyle;elbow=vertical;curved=0;rounded=0;fontSize=11;" edge="1" parent="1">
          <mxGeometry width="80" relative="1" as="geometry">
            <mxPoint x="510" y="280" as="sourcePoint" />
            <mxPoint x="710" y="280" as="targetPoint" />
            <mxPoint as="offset" />
          </mxGeometry>
        </mxCell>
        <mxCell id="mJexa9bztp8b54fikfIW-25" value="&lt;h2&gt;&lt;font style=&quot;font-size: 16px;&quot;&gt;Sequence Diagram - Senior Project Manager Add Materials to the Project&amp;nbsp;&lt;/font&gt;&lt;/h2&gt;" style="text;whiteSpace=wrap;html=1;" vertex="1" parent="1">
          <mxGeometry x="158" y="20" width="562" height="40" as="geometry" />
        </mxCell>
        <mxCell id="mJexa9bztp8b54fikfIW-26" value="UI" style="shape=umlLifeline;perimeter=lifelinePerimeter;whiteSpace=wrap;html=1;container=0;dropTarget=0;collapsible=0;recursiveResize=0;outlineConnect=0;portConstraint=eastwest;newEdgeStyle={&quot;edgeStyle&quot;:&quot;elbowEdgeStyle&quot;,&quot;elbow&quot;:&quot;vertical&quot;,&quot;curved&quot;:0,&quot;rounded&quot;:0};fontSize=12;" vertex="1" parent="1">
          <mxGeometry x="237" y="600" width="100" height="470" as="geometry" />
        </mxCell>
        <mxCell id="mJexa9bztp8b54fikfIW-27" value="" style="html=1;points=[];perimeter=orthogonalPerimeter;outlineConnect=0;targetShapes=umlLifeline;portConstraint=eastwest;newEdgeStyle={&quot;edgeStyle&quot;:&quot;elbowEdgeStyle&quot;,&quot;elbow&quot;:&quot;vertical&quot;,&quot;curved&quot;:0,&quot;rounded&quot;:0};fontSize=11;" vertex="1" parent="mJexa9bztp8b54fikfIW-26">
          <mxGeometry x="45" y="60" width="10" height="360" as="geometry" />
        </mxCell>
        <mxCell id="mJexa9bztp8b54fikfIW-28" value="" style="shape=umlDestroy;whiteSpace=wrap;html=1;strokeWidth=3;targetShapes=umlLifeline;fontSize=11;" vertex="1" parent="mJexa9bztp8b54fikfIW-26">
          <mxGeometry x="40" y="450" width="20" height="20" as="geometry" />
        </mxCell>
        <mxCell id="mJexa9bztp8b54fikfIW-29" value="Database" style="shape=umlLifeline;perimeter=lifelinePerimeter;whiteSpace=wrap;html=1;container=0;dropTarget=0;collapsible=0;recursiveResize=0;outlineConnect=0;portConstraint=eastwest;newEdgeStyle={&quot;edgeStyle&quot;:&quot;elbowEdgeStyle&quot;,&quot;elbow&quot;:&quot;vertical&quot;,&quot;curved&quot;:0,&quot;rounded&quot;:0};fontSize=12;" vertex="1" parent="1">
          <mxGeometry x="655" y="600" width="100" height="470" as="geometry" />
        </mxCell>
        <mxCell id="mJexa9bztp8b54fikfIW-30" value="" style="html=1;points=[];perimeter=orthogonalPerimeter;outlineConnect=0;targetShapes=umlLifeline;portConstraint=eastwest;newEdgeStyle={&quot;edgeStyle&quot;:&quot;elbowEdgeStyle&quot;,&quot;elbow&quot;:&quot;vertical&quot;,&quot;curved&quot;:0,&quot;rounded&quot;:0};fontSize=11;" vertex="1" parent="mJexa9bztp8b54fikfIW-29">
          <mxGeometry x="47" y="90" width="10" height="340" as="geometry" />
        </mxCell>
        <mxCell id="mJexa9bztp8b54fikfIW-31" value="" style="shape=umlDestroy;whiteSpace=wrap;html=1;strokeWidth=3;targetShapes=umlLifeline;fontSize=11;" vertex="1" parent="mJexa9bztp8b54fikfIW-29">
          <mxGeometry x="40" y="450" width="20" height="20" as="geometry" />
        </mxCell>
        <mxCell id="mJexa9bztp8b54fikfIW-32" value="" style="endArrow=none;dashed=1;html=1;rounded=0;fontSize=11;" edge="1" parent="1" target="mJexa9bztp8b54fikfIW-33">
          <mxGeometry width="50" height="50" relative="1" as="geometry">
            <mxPoint x="106" y="1060" as="sourcePoint" />
            <mxPoint x="107" y="690" as="targetPoint" />
          </mxGeometry>
        </mxCell>
        <mxCell id="mJexa9bztp8b54fikfIW-33" value="Senior Project Manager" style="shape=umlActor;verticalLabelPosition=bottom;verticalAlign=top;html=1;outlineConnect=0;fontSize=12;" vertex="1" parent="1">
          <mxGeometry x="97" y="580" width="20" height="40" as="geometry" />
        </mxCell>
        <mxCell id="mJexa9bztp8b54fikfIW-34" value="System" style="shape=umlLifeline;perimeter=lifelinePerimeter;whiteSpace=wrap;html=1;container=0;dropTarget=0;collapsible=0;recursiveResize=0;outlineConnect=0;portConstraint=eastwest;newEdgeStyle={&quot;edgeStyle&quot;:&quot;elbowEdgeStyle&quot;,&quot;elbow&quot;:&quot;vertical&quot;,&quot;curved&quot;:0,&quot;rounded&quot;:0};size=40;fontSize=12;" vertex="1" parent="1">
          <mxGeometry x="433" y="600" width="130" height="470" as="geometry" />
        </mxCell>
        <mxCell id="mJexa9bztp8b54fikfIW-35" value="" style="html=1;points=[];perimeter=orthogonalPerimeter;outlineConnect=0;targetShapes=umlLifeline;portConstraint=eastwest;newEdgeStyle={&quot;edgeStyle&quot;:&quot;elbowEdgeStyle&quot;,&quot;elbow&quot;:&quot;vertical&quot;,&quot;curved&quot;:0,&quot;rounded&quot;:0};fontSize=11;" vertex="1" parent="mJexa9bztp8b54fikfIW-34">
          <mxGeometry x="60" y="70" width="10" height="350" as="geometry" />
        </mxCell>
        <mxCell id="mJexa9bztp8b54fikfIW-36" value="" style="shape=umlDestroy;whiteSpace=wrap;html=1;strokeWidth=3;targetShapes=umlLifeline;fontSize=11;" vertex="1" parent="mJexa9bztp8b54fikfIW-34">
          <mxGeometry x="55" y="450" width="20" height="20" as="geometry" />
        </mxCell>
        <mxCell id="mJexa9bztp8b54fikfIW-37" value="Materials Not Returned" style="html=1;verticalAlign=bottom;endArrow=open;dashed=1;endSize=8;edgeStyle=elbowEdgeStyle;elbow=vertical;curved=0;rounded=0;fontSize=11;" edge="1" parent="1">
          <mxGeometry x="-0.0008" relative="1" as="geometry">
            <mxPoint x="507" y="940" as="targetPoint" />
            <Array as="points">
              <mxPoint x="557" y="940" />
              <mxPoint x="647" y="1010" />
              <mxPoint x="627" y="1000" />
              <mxPoint x="607" y="990" />
              <mxPoint x="587" y="980" />
              <mxPoint x="602" y="960" />
            </Array>
            <mxPoint as="offset" />
            <mxPoint x="697" y="940" as="sourcePoint" />
          </mxGeometry>
        </mxCell>
        <mxCell id="mJexa9bztp8b54fikfIW-38" value="" style="html=1;verticalAlign=bottom;endArrow=open;dashed=1;endSize=8;edgeStyle=elbowEdgeStyle;elbow=vertical;curved=0;rounded=0;fontSize=11;" edge="1" parent="1">
          <mxGeometry x="-0.206" relative="1" as="geometry">
            <mxPoint x="498" y="872.5" as="targetPoint" />
            <Array as="points">
              <mxPoint x="552" y="872.5" />
              <mxPoint x="592" y="912.5" />
              <mxPoint x="572" y="902.5" />
              <mxPoint x="582" y="902.5" />
            </Array>
            <mxPoint x="697" y="872.5" as="sourcePoint" />
            <mxPoint as="offset" />
          </mxGeometry>
        </mxCell>
        <mxCell id="mJexa9bztp8b54fikfIW-39" value="Materials Returned Successfully" style="edgeLabel;html=1;align=center;verticalAlign=middle;resizable=0;points=[];fontSize=11;" vertex="1" connectable="0" parent="mJexa9bztp8b54fikfIW-38">
          <mxGeometry x="-0.0814" y="-3" relative="1" as="geometry">
            <mxPoint y="-8" as="offset" />
          </mxGeometry>
        </mxCell>
        <mxCell id="mJexa9bztp8b54fikfIW-40" value="Alternative" style="shape=umlFrame;whiteSpace=wrap;html=1;pointerEvents=0;fontSize=11;" vertex="1" parent="1">
          <mxGeometry x="61" y="850" width="690" height="120" as="geometry" />
        </mxCell>
        <mxCell id="mJexa9bztp8b54fikfIW-41" value="" style="line;strokeWidth=1;fillColor=none;align=left;verticalAlign=middle;spacingTop=-1;spacingLeft=3;spacingRight=3;rotatable=0;labelPosition=right;points=[];portConstraint=eastwest;strokeColor=inherit;fontSize=11;" vertex="1" parent="1">
          <mxGeometry x="61" y="911.25" width="694" height="8" as="geometry" />
        </mxCell>
        <mxCell id="mJexa9bztp8b54fikfIW-42" value="Display Materials&lt;br style=&quot;font-size: 11px;&quot;&gt;Returned Successfully&amp;nbsp;" style="html=1;verticalAlign=bottom;endArrow=block;edgeStyle=elbowEdgeStyle;elbow=vertical;curved=0;rounded=0;dashed=1;fontSize=11;" edge="1" parent="1">
          <mxGeometry y="-5" width="80" relative="1" as="geometry">
            <mxPoint x="282" y="901.25" as="sourcePoint" />
            <mxPoint x="102" y="901.25" as="targetPoint" />
            <Array as="points">
              <mxPoint x="207" y="901.25" />
            </Array>
            <mxPoint as="offset" />
          </mxGeometry>
        </mxCell>
        <mxCell id="mJexa9bztp8b54fikfIW-43" value="Display Error Message&amp;nbsp;" style="html=1;verticalAlign=bottom;endArrow=block;edgeStyle=elbowEdgeStyle;elbow=vertical;curved=0;rounded=0;dashed=1;fontSize=11;" edge="1" parent="1">
          <mxGeometry width="80" relative="1" as="geometry">
            <mxPoint x="276" y="955.25" as="sourcePoint" />
            <mxPoint x="106" y="955.25" as="targetPoint" />
            <mxPoint as="offset" />
          </mxGeometry>
        </mxCell>
        <mxCell id="mJexa9bztp8b54fikfIW-44" value="&lt;span style=&quot;font-size: 11px;&quot;&gt;&lt;b style=&quot;font-size: 11px;&quot;&gt;[if Material Returned ]&lt;/b&gt;&lt;/span&gt;" style="text;html=1;strokeColor=none;fillColor=none;align=left;verticalAlign=middle;whiteSpace=wrap;rounded=0;fontSize=11;" vertex="1" parent="1">
          <mxGeometry x="121" y="850" width="169" height="22.5" as="geometry" />
        </mxCell>
        <mxCell id="mJexa9bztp8b54fikfIW-45" value="&lt;font style=&quot;font-size: 11px;&quot;&gt;&lt;b style=&quot;font-size: 11px;&quot;&gt;[else]&lt;/b&gt;&lt;/font&gt;" style="text;html=1;strokeColor=none;fillColor=none;align=left;verticalAlign=middle;whiteSpace=wrap;rounded=0;fontSize=11;" vertex="1" parent="1">
          <mxGeometry x="62" y="919.25" width="80" height="10" as="geometry" />
        </mxCell>
        <mxCell id="mJexa9bztp8b54fikfIW-46" value="Select Relevant Material &amp;amp;&lt;br&gt;Click Return" style="html=1;verticalAlign=bottom;endArrow=block;edgeStyle=elbowEdgeStyle;elbow=vertical;curved=0;rounded=0;fontSize=11;" edge="1" parent="1">
          <mxGeometry width="80" relative="1" as="geometry">
            <mxPoint x="109" y="710" as="sourcePoint" />
            <mxPoint x="287" y="710" as="targetPoint" />
            <Array as="points">
              <mxPoint x="108" y="710" />
            </Array>
          </mxGeometry>
        </mxCell>
        <mxCell id="mJexa9bztp8b54fikfIW-47" value="Updated the Return Material Status" style="html=1;verticalAlign=bottom;endArrow=block;edgeStyle=elbowEdgeStyle;elbow=horizontal;curved=0;rounded=0;fontSize=11;" edge="1" parent="1">
          <mxGeometry width="80" relative="1" as="geometry">
            <mxPoint x="289.75" y="760" as="sourcePoint" />
            <mxPoint x="491.25" y="760" as="targetPoint" />
            <Array as="points" />
          </mxGeometry>
        </mxCell>
        <mxCell id="mJexa9bztp8b54fikfIW-48" value="Update Return Materials Status&amp;nbsp;" style="html=1;verticalAlign=bottom;endArrow=block;edgeStyle=elbowEdgeStyle;elbow=vertical;curved=0;rounded=0;fontSize=11;" edge="1" parent="1">
          <mxGeometry width="80" relative="1" as="geometry">
            <mxPoint x="507" y="800" as="sourcePoint" />
            <mxPoint x="707" y="800" as="targetPoint" />
            <Array as="points" />
          </mxGeometry>
        </mxCell>
        <mxCell id="mJexa9bztp8b54fikfIW-49" value="" style="html=1;verticalAlign=bottom;endArrow=open;dashed=1;endSize=8;edgeStyle=elbowEdgeStyle;elbow=vertical;curved=0;rounded=0;fontSize=11;" edge="1" parent="1">
          <mxGeometry x="-0.206" relative="1" as="geometry">
            <mxPoint x="295" y="882.5" as="targetPoint" />
            <Array as="points">
              <mxPoint x="349" y="882.5" />
              <mxPoint x="389" y="922.5" />
              <mxPoint x="369" y="912.5" />
              <mxPoint x="379" y="912.5" />
            </Array>
            <mxPoint x="494" y="882.5" as="sourcePoint" />
            <mxPoint as="offset" />
          </mxGeometry>
        </mxCell>
        <mxCell id="mJexa9bztp8b54fikfIW-50" value="Materials Returned Successfully" style="edgeLabel;html=1;align=center;verticalAlign=middle;resizable=0;points=[];fontSize=11;" vertex="1" connectable="0" parent="mJexa9bztp8b54fikfIW-49">
          <mxGeometry x="-0.0814" y="-3" relative="1" as="geometry">
            <mxPoint x="-13" y="-7" as="offset" />
          </mxGeometry>
        </mxCell>
        <mxCell id="mJexa9bztp8b54fikfIW-51" value="Materials Not Returned" style="html=1;verticalAlign=bottom;endArrow=open;dashed=1;endSize=8;edgeStyle=elbowEdgeStyle;elbow=vertical;curved=0;rounded=0;fontSize=11;" edge="1" parent="1">
          <mxGeometry x="-0.0008" relative="1" as="geometry">
            <mxPoint x="297" y="950" as="targetPoint" />
            <Array as="points">
              <mxPoint x="349.5" y="950" />
              <mxPoint x="439.5" y="1020" />
              <mxPoint x="419.5" y="1010" />
              <mxPoint x="399.5" y="1000" />
              <mxPoint x="379.5" y="990" />
              <mxPoint x="394.5" y="970" />
            </Array>
            <mxPoint as="offset" />
            <mxPoint x="489.5" y="950" as="sourcePoint" />
          </mxGeometry>
        </mxCell>
        <mxCell id="mJexa9bztp8b54fikfIW-52" value="&lt;h2 style=&quot;&quot;&gt;&lt;font style=&quot;font-size: 16px;&quot;&gt;Sequence Diagram - Senior Project Manager Return Materials from the Project&lt;/font&gt;&lt;/h2&gt;" style="text;whiteSpace=wrap;html=1;fontSize=12;" vertex="1" parent="1">
          <mxGeometry x="110" y="530" width="650" height="40" as="geometry" />
        </mxCell>
      </root>
    </mxGraphModel>
  </diagram>
  <diagram name="4" id="dcDXjSJLy8CwkxaD0WyU">
    <mxGraphModel dx="1032" dy="580" grid="1" gridSize="10" guides="1" tooltips="1" connect="1" arrows="1" fold="1" page="1" pageScale="1" pageWidth="827" pageHeight="1169" math="0" shadow="0">
      <root>
        <mxCell id="ElqWJp2YF02nGAWv7eCx-0" />
        <mxCell id="ElqWJp2YF02nGAWv7eCx-1" parent="ElqWJp2YF02nGAWv7eCx-0" />
        <mxCell id="ElqWJp2YF02nGAWv7eCx-27" value="&lt;font style=&quot;border-color: var(--border-color);&quot;&gt;&lt;b style=&quot;border-color: var(--border-color); font-size: 16px;&quot;&gt;Sequence Diagram - Senior Project Manager Send Feedback for the Project Manager&#39;s Requests&lt;/b&gt;&lt;/font&gt;" style="text;html=1;strokeColor=none;fillColor=none;align=center;verticalAlign=middle;whiteSpace=wrap;rounded=0;" parent="ElqWJp2YF02nGAWv7eCx-1" vertex="1">
          <mxGeometry x="53" y="30" width="747" height="30" as="geometry" />
        </mxCell>
        <mxCell id="ElqWJp2YF02nGAWv7eCx-28" value="UI" style="shape=umlLifeline;perimeter=lifelinePerimeter;whiteSpace=wrap;html=1;container=0;dropTarget=0;collapsible=0;recursiveResize=0;outlineConnect=0;portConstraint=eastwest;newEdgeStyle={&quot;edgeStyle&quot;:&quot;elbowEdgeStyle&quot;,&quot;elbow&quot;:&quot;vertical&quot;,&quot;curved&quot;:0,&quot;rounded&quot;:0};" parent="ElqWJp2YF02nGAWv7eCx-1" vertex="1">
          <mxGeometry x="243" y="95" width="100" height="535" as="geometry" />
        </mxCell>
        <mxCell id="ElqWJp2YF02nGAWv7eCx-29" value="" style="html=1;points=[];perimeter=orthogonalPerimeter;outlineConnect=0;targetShapes=umlLifeline;portConstraint=eastwest;newEdgeStyle={&quot;edgeStyle&quot;:&quot;elbowEdgeStyle&quot;,&quot;elbow&quot;:&quot;vertical&quot;,&quot;curved&quot;:0,&quot;rounded&quot;:0};" parent="ElqWJp2YF02nGAWv7eCx-28" vertex="1">
          <mxGeometry x="45" y="80" width="10" height="430" as="geometry" />
        </mxCell>
        <mxCell id="ElqWJp2YF02nGAWv7eCx-30" value="" style="shape=umlDestroy;whiteSpace=wrap;html=1;strokeWidth=3;targetShapes=umlLifeline;" parent="ElqWJp2YF02nGAWv7eCx-28" vertex="1">
          <mxGeometry x="40" y="515" width="20" height="20" as="geometry" />
        </mxCell>
        <mxCell id="ElqWJp2YF02nGAWv7eCx-31" value="Database" style="shape=umlLifeline;perimeter=lifelinePerimeter;whiteSpace=wrap;html=1;container=0;dropTarget=0;collapsible=0;recursiveResize=0;outlineConnect=0;portConstraint=eastwest;newEdgeStyle={&quot;edgeStyle&quot;:&quot;elbowEdgeStyle&quot;,&quot;elbow&quot;:&quot;vertical&quot;,&quot;curved&quot;:0,&quot;rounded&quot;:0};" parent="ElqWJp2YF02nGAWv7eCx-1" vertex="1">
          <mxGeometry x="683" y="95" width="100" height="535" as="geometry" />
        </mxCell>
        <mxCell id="ElqWJp2YF02nGAWv7eCx-32" value="" style="html=1;points=[];perimeter=orthogonalPerimeter;outlineConnect=0;targetShapes=umlLifeline;portConstraint=eastwest;newEdgeStyle={&quot;edgeStyle&quot;:&quot;elbowEdgeStyle&quot;,&quot;elbow&quot;:&quot;vertical&quot;,&quot;curved&quot;:0,&quot;rounded&quot;:0};" parent="ElqWJp2YF02nGAWv7eCx-31" vertex="1">
          <mxGeometry x="45" y="80" width="10" height="430" as="geometry" />
        </mxCell>
        <mxCell id="ElqWJp2YF02nGAWv7eCx-33" value="" style="shape=umlDestroy;whiteSpace=wrap;html=1;strokeWidth=3;targetShapes=umlLifeline;" parent="ElqWJp2YF02nGAWv7eCx-31" vertex="1">
          <mxGeometry x="40" y="515" width="20" height="20" as="geometry" />
        </mxCell>
        <mxCell id="ElqWJp2YF02nGAWv7eCx-34" value="Show the Selected Request" style="html=1;verticalAlign=bottom;endArrow=block;edgeStyle=elbowEdgeStyle;elbow=vertical;curved=0;rounded=0;" parent="ElqWJp2YF02nGAWv7eCx-1" edge="1">
          <mxGeometry relative="1" as="geometry">
            <mxPoint x="520" y="230.5" as="sourcePoint" />
            <Array as="points">
              <mxPoint x="526.75" y="230" />
              <mxPoint x="585.25" y="100" />
              <mxPoint x="565.25" y="130" />
            </Array>
            <mxPoint x="729.5" y="230" as="targetPoint" />
          </mxGeometry>
        </mxCell>
        <mxCell id="ElqWJp2YF02nGAWv7eCx-35" value="Request&amp;nbsp;&amp;nbsp;Details is not available" style="html=1;verticalAlign=bottom;endArrow=open;dashed=1;endSize=8;edgeStyle=elbowEdgeStyle;elbow=vertical;curved=0;rounded=0;" parent="ElqWJp2YF02nGAWv7eCx-1" edge="1">
          <mxGeometry x="-0.0057" relative="1" as="geometry">
            <mxPoint x="517.5" y="362" as="targetPoint" />
            <Array as="points">
              <mxPoint x="547.75" y="362" />
              <mxPoint x="637.75" y="432" />
              <mxPoint x="617.75" y="422" />
              <mxPoint x="597.75" y="412" />
              <mxPoint x="577.75" y="402" />
              <mxPoint x="592.75" y="382" />
            </Array>
            <mxPoint as="offset" />
            <mxPoint x="733" y="362" as="sourcePoint" />
          </mxGeometry>
        </mxCell>
        <mxCell id="ElqWJp2YF02nGAWv7eCx-36" value="Request&amp;nbsp;&amp;nbsp;Details is available" style="html=1;verticalAlign=bottom;endArrow=open;dashed=1;endSize=8;edgeStyle=elbowEdgeStyle;elbow=vertical;curved=0;rounded=0;" parent="ElqWJp2YF02nGAWv7eCx-1" edge="1">
          <mxGeometry x="-0.0436" relative="1" as="geometry">
            <mxPoint x="518" y="280" as="targetPoint" />
            <Array as="points">
              <mxPoint x="558.25" y="280" />
              <mxPoint x="598.25" y="320" />
              <mxPoint x="578.25" y="310" />
              <mxPoint x="588.25" y="310" />
            </Array>
            <mxPoint x="728" y="280" as="sourcePoint" />
            <mxPoint as="offset" />
          </mxGeometry>
        </mxCell>
        <mxCell id="ElqWJp2YF02nGAWv7eCx-37" value="" style="endArrow=none;dashed=1;html=1;rounded=0;" parent="ElqWJp2YF02nGAWv7eCx-1" edge="1">
          <mxGeometry width="50" height="50" relative="1" as="geometry">
            <mxPoint x="73" y="630" as="sourcePoint" />
            <mxPoint x="73.32999999999998" y="180" as="targetPoint" />
          </mxGeometry>
        </mxCell>
        <mxCell id="ElqWJp2YF02nGAWv7eCx-38" value="Senior Project Manger" style="shape=umlActor;verticalLabelPosition=bottom;verticalAlign=top;html=1;outlineConnect=0;" parent="ElqWJp2YF02nGAWv7eCx-1" vertex="1">
          <mxGeometry x="63" y="105" width="20" height="40" as="geometry" />
        </mxCell>
        <mxCell id="ElqWJp2YF02nGAWv7eCx-39" value="Alternative" style="shape=umlFrame;whiteSpace=wrap;html=1;pointerEvents=0;" parent="ElqWJp2YF02nGAWv7eCx-1" vertex="1">
          <mxGeometry x="20" y="260" width="753" height="130" as="geometry" />
        </mxCell>
        <mxCell id="ElqWJp2YF02nGAWv7eCx-40" value="" style="line;strokeWidth=1;fillColor=none;align=left;verticalAlign=middle;spacingTop=-1;spacingLeft=3;spacingRight=3;rotatable=0;labelPosition=right;points=[];portConstraint=eastwest;strokeColor=inherit;" parent="ElqWJp2YF02nGAWv7eCx-1" vertex="1">
          <mxGeometry x="20" y="326" width="749" height="8" as="geometry" />
        </mxCell>
        <mxCell id="ElqWJp2YF02nGAWv7eCx-41" value="Display Request&amp;nbsp;Details" style="html=1;verticalAlign=bottom;endArrow=block;edgeStyle=elbowEdgeStyle;elbow=vertical;curved=0;rounded=0;dashed=1;exitX=0.025;exitY=0.735;exitDx=0;exitDy=0;exitPerimeter=0;" parent="ElqWJp2YF02nGAWv7eCx-1" edge="1">
          <mxGeometry x="0.1266" width="80" relative="1" as="geometry">
            <mxPoint x="288.25" y="336" as="sourcePoint" />
            <mxPoint x="73" y="314.04999999999995" as="targetPoint" />
            <Array as="points">
              <mxPoint x="190.5" y="314.04999999999995" />
            </Array>
            <mxPoint x="-1" as="offset" />
          </mxGeometry>
        </mxCell>
        <mxCell id="ElqWJp2YF02nGAWv7eCx-42" value="Display Nothing" style="html=1;verticalAlign=bottom;endArrow=block;edgeStyle=elbowEdgeStyle;elbow=vertical;curved=0;rounded=0;dashed=1;" parent="ElqWJp2YF02nGAWv7eCx-1" edge="1">
          <mxGeometry width="80" relative="1" as="geometry">
            <mxPoint x="285" y="380.33333333333326" as="sourcePoint" />
            <mxPoint x="70" y="380" as="targetPoint" />
          </mxGeometry>
        </mxCell>
        <mxCell id="ElqWJp2YF02nGAWv7eCx-43" value="&lt;b style=&quot;border-color: var(--border-color); font-size: 10px;&quot;&gt;[if Request Details&lt;/b&gt;&lt;b style=&quot;border-color: var(--border-color);&quot;&gt;&amp;nbsp;available&lt;/b&gt;&lt;b style=&quot;border-color: var(--border-color); font-size: 10px;&quot;&gt;]&lt;/b&gt;" style="text;html=1;strokeColor=none;fillColor=none;align=left;verticalAlign=middle;whiteSpace=wrap;rounded=0;" parent="ElqWJp2YF02nGAWv7eCx-1" vertex="1">
          <mxGeometry x="89" y="260" width="151" height="10" as="geometry" />
        </mxCell>
        <mxCell id="ElqWJp2YF02nGAWv7eCx-44" value="&lt;font style=&quot;font-size: 10px;&quot;&gt;&lt;b&gt;[else]&lt;/b&gt;&lt;/font&gt;" style="text;html=1;strokeColor=none;fillColor=none;align=left;verticalAlign=middle;whiteSpace=wrap;rounded=0;" parent="ElqWJp2YF02nGAWv7eCx-1" vertex="1">
          <mxGeometry x="70" y="338" width="80" height="10" as="geometry" />
        </mxCell>
        <mxCell id="ElqWJp2YF02nGAWv7eCx-45" value="Select the Project Requests" style="html=1;verticalAlign=bottom;endArrow=blockThin;edgeStyle=elbowEdgeStyle;elbow=vertical;curved=0;rounded=0;endFill=1;" parent="ElqWJp2YF02nGAWv7eCx-1" edge="1">
          <mxGeometry relative="1" as="geometry">
            <mxPoint x="281.5" y="200" as="targetPoint" />
            <Array as="points">
              <mxPoint x="206" y="200" />
              <mxPoint x="173.5" y="220" />
            </Array>
            <mxPoint x="76.5" y="200" as="sourcePoint" />
            <mxPoint as="offset" />
          </mxGeometry>
        </mxCell>
        <mxCell id="ElqWJp2YF02nGAWv7eCx-46" value="System" style="shape=umlLifeline;perimeter=lifelinePerimeter;whiteSpace=wrap;html=1;container=0;dropTarget=0;collapsible=0;recursiveResize=0;outlineConnect=0;portConstraint=eastwest;newEdgeStyle={&quot;edgeStyle&quot;:&quot;elbowEdgeStyle&quot;,&quot;elbow&quot;:&quot;vertical&quot;,&quot;curved&quot;:0,&quot;rounded&quot;:0};" parent="ElqWJp2YF02nGAWv7eCx-1" vertex="1">
          <mxGeometry x="443" y="95" width="140" height="535" as="geometry" />
        </mxCell>
        <mxCell id="ElqWJp2YF02nGAWv7eCx-47" value="" style="html=1;points=[];perimeter=orthogonalPerimeter;outlineConnect=0;targetShapes=umlLifeline;portConstraint=eastwest;newEdgeStyle={&quot;edgeStyle&quot;:&quot;elbowEdgeStyle&quot;,&quot;elbow&quot;:&quot;vertical&quot;,&quot;curved&quot;:0,&quot;rounded&quot;:0};" parent="ElqWJp2YF02nGAWv7eCx-46" vertex="1">
          <mxGeometry x="65" y="80" width="10" height="430" as="geometry" />
        </mxCell>
        <mxCell id="ElqWJp2YF02nGAWv7eCx-48" value="" style="shape=umlDestroy;whiteSpace=wrap;html=1;strokeWidth=3;targetShapes=umlLifeline;" parent="ElqWJp2YF02nGAWv7eCx-46" vertex="1">
          <mxGeometry x="60" y="515" width="20" height="20" as="geometry" />
        </mxCell>
        <mxCell id="ElqWJp2YF02nGAWv7eCx-49" value="Selected Request" style="html=1;verticalAlign=bottom;endArrow=block;edgeStyle=elbowEdgeStyle;elbow=vertical;curved=0;rounded=0;" parent="ElqWJp2YF02nGAWv7eCx-1" edge="1">
          <mxGeometry relative="1" as="geometry">
            <mxPoint x="296" y="220" as="sourcePoint" />
            <Array as="points">
              <mxPoint x="398.5" y="220" />
              <mxPoint x="358.5" y="210" />
              <mxPoint x="428.5" y="80" />
              <mxPoint x="396" y="70" />
              <mxPoint x="376" y="100" />
            </Array>
            <mxPoint x="510.25" y="220" as="targetPoint" />
          </mxGeometry>
        </mxCell>
        <mxCell id="ElqWJp2YF02nGAWv7eCx-50" value="Request Details" style="html=1;verticalAlign=bottom;endArrow=open;dashed=1;endSize=8;edgeStyle=elbowEdgeStyle;elbow=vertical;curved=0;rounded=0;" parent="ElqWJp2YF02nGAWv7eCx-1" edge="1">
          <mxGeometry relative="1" as="geometry">
            <mxPoint x="296" y="290" as="targetPoint" />
            <Array as="points">
              <mxPoint x="356" y="290" />
              <mxPoint x="396" y="330" />
              <mxPoint x="376" y="320" />
              <mxPoint x="386" y="320" />
            </Array>
            <mxPoint x="510.25" y="290" as="sourcePoint" />
          </mxGeometry>
        </mxCell>
        <mxCell id="ElqWJp2YF02nGAWv7eCx-51" value="No Request Details" style="html=1;verticalAlign=bottom;endArrow=open;dashed=1;endSize=8;edgeStyle=elbowEdgeStyle;elbow=vertical;curved=0;rounded=0;" parent="ElqWJp2YF02nGAWv7eCx-1" edge="1">
          <mxGeometry relative="1" as="geometry">
            <mxPoint x="298.81" y="370" as="targetPoint" />
            <Array as="points">
              <mxPoint x="358.81" y="370" />
              <mxPoint x="398.81" y="410" />
              <mxPoint x="378.81" y="400" />
              <mxPoint x="388.81" y="400" />
            </Array>
            <mxPoint x="512.19" y="370" as="sourcePoint" />
          </mxGeometry>
        </mxCell>
        <mxCell id="ElqWJp2YF02nGAWv7eCx-52" value="Alternative" style="shape=umlFrame;whiteSpace=wrap;html=1;pointerEvents=0;" parent="ElqWJp2YF02nGAWv7eCx-1" vertex="1">
          <mxGeometry x="22.5" y="450" width="753" height="130" as="geometry" />
        </mxCell>
        <mxCell id="ElqWJp2YF02nGAWv7eCx-53" value="" style="line;strokeWidth=1;fillColor=none;align=left;verticalAlign=middle;spacingTop=-1;spacingLeft=3;spacingRight=3;rotatable=0;labelPosition=right;points=[];portConstraint=eastwest;strokeColor=inherit;" parent="ElqWJp2YF02nGAWv7eCx-1" vertex="1">
          <mxGeometry x="22.5" y="516" width="749" height="8" as="geometry" />
        </mxCell>
        <mxCell id="ElqWJp2YF02nGAWv7eCx-54" value="Display Feedback Status &lt;br&gt;Updated Successfully&amp;nbsp;" style="html=1;verticalAlign=bottom;endArrow=block;edgeStyle=elbowEdgeStyle;elbow=vertical;curved=0;rounded=0;dashed=1;" parent="ElqWJp2YF02nGAWv7eCx-1" edge="1">
          <mxGeometry x="0.1266" width="80" relative="1" as="geometry">
            <mxPoint x="290" y="510" as="sourcePoint" />
            <mxPoint x="75.5" y="504.04999999999995" as="targetPoint" />
            <Array as="points">
              <mxPoint x="193" y="504.04999999999995" />
            </Array>
            <mxPoint x="-1" as="offset" />
          </mxGeometry>
        </mxCell>
        <mxCell id="ElqWJp2YF02nGAWv7eCx-55" value="Display Error Message" style="html=1;verticalAlign=bottom;endArrow=block;edgeStyle=elbowEdgeStyle;elbow=vertical;curved=0;rounded=0;dashed=1;" parent="ElqWJp2YF02nGAWv7eCx-1" edge="1">
          <mxGeometry width="80" relative="1" as="geometry">
            <mxPoint x="287.5" y="570.3333333333333" as="sourcePoint" />
            <mxPoint x="72.5" y="570" as="targetPoint" />
          </mxGeometry>
        </mxCell>
        <mxCell id="ElqWJp2YF02nGAWv7eCx-56" value="&lt;span style=&quot;font-size: 10px;&quot;&gt;&lt;b&gt;[if Feedback status Updated ]&lt;/b&gt;&lt;/span&gt;" style="text;html=1;strokeColor=none;fillColor=none;align=left;verticalAlign=middle;whiteSpace=wrap;rounded=0;" parent="ElqWJp2YF02nGAWv7eCx-1" vertex="1">
          <mxGeometry x="91.5" y="450" width="168.5" height="10" as="geometry" />
        </mxCell>
        <mxCell id="ElqWJp2YF02nGAWv7eCx-57" value="&lt;font style=&quot;font-size: 10px;&quot;&gt;&lt;b&gt;[else]&lt;/b&gt;&lt;/font&gt;" style="text;html=1;strokeColor=none;fillColor=none;align=left;verticalAlign=middle;whiteSpace=wrap;rounded=0;" parent="ElqWJp2YF02nGAWv7eCx-1" vertex="1">
          <mxGeometry x="72.5" y="528" width="80" height="10" as="geometry" />
        </mxCell>
        <mxCell id="ElqWJp2YF02nGAWv7eCx-58" value="Feedback Status updated Successfully" style="html=1;verticalAlign=bottom;endArrow=open;dashed=1;endSize=8;edgeStyle=elbowEdgeStyle;elbow=vertical;curved=0;rounded=0;" parent="ElqWJp2YF02nGAWv7eCx-1" edge="1">
          <mxGeometry relative="1" as="geometry">
            <mxPoint x="298.5" y="480" as="targetPoint" />
            <Array as="points">
              <mxPoint x="358.5" y="480" />
              <mxPoint x="398.5" y="520" />
              <mxPoint x="378.5" y="510" />
              <mxPoint x="388.5" y="510" />
            </Array>
            <mxPoint x="512.75" y="480" as="sourcePoint" />
          </mxGeometry>
        </mxCell>
        <mxCell id="ElqWJp2YF02nGAWv7eCx-59" value="Feedback Status Not updated&amp;nbsp;" style="html=1;verticalAlign=bottom;endArrow=open;dashed=1;endSize=8;edgeStyle=elbowEdgeStyle;elbow=vertical;curved=0;rounded=0;" parent="ElqWJp2YF02nGAWv7eCx-1" edge="1">
          <mxGeometry relative="1" as="geometry">
            <mxPoint x="301.31" y="560" as="targetPoint" />
            <Array as="points">
              <mxPoint x="361.31" y="560" />
              <mxPoint x="401.31" y="600" />
              <mxPoint x="381.31" y="590" />
              <mxPoint x="391.31" y="590" />
            </Array>
            <mxPoint x="514.69" y="560" as="sourcePoint" />
          </mxGeometry>
        </mxCell>
        <mxCell id="ElqWJp2YF02nGAWv7eCx-60" value="add feedback Status to the request" style="html=1;verticalAlign=bottom;endArrow=blockThin;edgeStyle=elbowEdgeStyle;elbow=vertical;curved=0;rounded=0;endFill=1;" parent="ElqWJp2YF02nGAWv7eCx-1" edge="1">
          <mxGeometry relative="1" as="geometry">
            <mxPoint x="288" y="420" as="targetPoint" />
            <Array as="points">
              <mxPoint x="212.5" y="420" />
              <mxPoint x="180" y="440" />
            </Array>
            <mxPoint x="70" y="420" as="sourcePoint" />
            <mxPoint as="offset" />
          </mxGeometry>
        </mxCell>
        <mxCell id="ElqWJp2YF02nGAWv7eCx-61" value="Added Feedback Status" style="html=1;verticalAlign=bottom;endArrow=block;edgeStyle=elbowEdgeStyle;elbow=horizontal;curved=0;rounded=0;" parent="ElqWJp2YF02nGAWv7eCx-1" edge="1">
          <mxGeometry relative="1" as="geometry">
            <mxPoint x="296" y="430" as="sourcePoint" />
            <Array as="points">
              <mxPoint x="398.5" y="430" />
              <mxPoint x="358.5" y="420" />
              <mxPoint x="428.5" y="290" />
              <mxPoint x="396" y="280" />
              <mxPoint x="376" y="310" />
            </Array>
            <mxPoint x="510.25" y="430" as="targetPoint" />
          </mxGeometry>
        </mxCell>
        <mxCell id="AxHBAqCJGJqcQ0mP4e-F-0" value="Update Feedback Status&amp;nbsp;" style="html=1;verticalAlign=bottom;endArrow=block;edgeStyle=elbowEdgeStyle;elbow=vertical;curved=0;rounded=0;fontSize=11;" parent="ElqWJp2YF02nGAWv7eCx-1" edge="1">
          <mxGeometry width="80" relative="1" as="geometry">
            <mxPoint x="520" y="440" as="sourcePoint" />
            <mxPoint x="720" y="440" as="targetPoint" />
            <Array as="points" />
          </mxGeometry>
        </mxCell>
        <mxCell id="1hYh8Ks0NvuBNATCTU7a-0" value="Feedback Status Not updated&amp;nbsp;" style="html=1;verticalAlign=bottom;endArrow=open;dashed=1;endSize=8;edgeStyle=elbowEdgeStyle;elbow=vertical;curved=0;rounded=0;fontSize=11;" parent="ElqWJp2YF02nGAWv7eCx-1" edge="1">
          <mxGeometry x="-0.0008" relative="1" as="geometry">
            <mxPoint x="519" y="538" as="targetPoint" />
            <Array as="points">
              <mxPoint x="569" y="538" />
              <mxPoint x="659" y="608" />
              <mxPoint x="639" y="598" />
              <mxPoint x="619" y="588" />
              <mxPoint x="599" y="578" />
              <mxPoint x="614" y="558" />
            </Array>
            <mxPoint as="offset" />
            <mxPoint x="728" y="538" as="sourcePoint" />
          </mxGeometry>
        </mxCell>
        <mxCell id="1hYh8Ks0NvuBNATCTU7a-1" value="" style="html=1;verticalAlign=bottom;endArrow=open;dashed=1;endSize=8;edgeStyle=elbowEdgeStyle;elbow=vertical;curved=0;rounded=0;fontSize=11;exitX=0.2;exitY=0.68;exitDx=0;exitDy=0;exitPerimeter=0;" parent="ElqWJp2YF02nGAWv7eCx-1" source="ElqWJp2YF02nGAWv7eCx-32" edge="1">
          <mxGeometry x="-0.206" relative="1" as="geometry">
            <mxPoint x="510" y="467.5" as="targetPoint" />
            <Array as="points">
              <mxPoint x="564" y="467.5" />
              <mxPoint x="604" y="507.5" />
              <mxPoint x="584" y="497.5" />
              <mxPoint x="594" y="497.5" />
            </Array>
            <mxPoint x="709" y="467.5" as="sourcePoint" />
            <mxPoint as="offset" />
          </mxGeometry>
        </mxCell>
        <mxCell id="1hYh8Ks0NvuBNATCTU7a-2" value="Feedback Status updated Successfully" style="edgeLabel;html=1;align=center;verticalAlign=middle;resizable=0;points=[];fontSize=11;" parent="1hYh8Ks0NvuBNATCTU7a-1" vertex="1" connectable="0">
          <mxGeometry x="-0.0814" y="-3" relative="1" as="geometry">
            <mxPoint y="-8" as="offset" />
          </mxGeometry>
        </mxCell>
        <mxCell id="iPzF9EMAjj-KMcbZVm3x-0" value="UI" style="shape=umlLifeline;perimeter=lifelinePerimeter;whiteSpace=wrap;html=1;container=0;dropTarget=0;collapsible=0;recursiveResize=0;outlineConnect=0;portConstraint=eastwest;newEdgeStyle={&quot;edgeStyle&quot;:&quot;elbowEdgeStyle&quot;,&quot;elbow&quot;:&quot;vertical&quot;,&quot;curved&quot;:0,&quot;rounded&quot;:0};" parent="ElqWJp2YF02nGAWv7eCx-1" vertex="1">
          <mxGeometry x="223" y="700" width="100" height="440" as="geometry" />
        </mxCell>
        <mxCell id="iPzF9EMAjj-KMcbZVm3x-1" value="" style="html=1;points=[];perimeter=orthogonalPerimeter;outlineConnect=0;targetShapes=umlLifeline;portConstraint=eastwest;newEdgeStyle={&quot;edgeStyle&quot;:&quot;elbowEdgeStyle&quot;,&quot;elbow&quot;:&quot;vertical&quot;,&quot;curved&quot;:0,&quot;rounded&quot;:0};" parent="iPzF9EMAjj-KMcbZVm3x-0" vertex="1">
          <mxGeometry x="45" y="50" width="10" height="330" as="geometry" />
        </mxCell>
        <mxCell id="iPzF9EMAjj-KMcbZVm3x-2" value="" style="shape=umlDestroy;whiteSpace=wrap;html=1;strokeWidth=3;targetShapes=umlLifeline;" parent="iPzF9EMAjj-KMcbZVm3x-0" vertex="1">
          <mxGeometry x="40" y="410" width="20" height="20" as="geometry" />
        </mxCell>
        <mxCell id="iPzF9EMAjj-KMcbZVm3x-3" value="Database" style="shape=umlLifeline;perimeter=lifelinePerimeter;whiteSpace=wrap;html=1;container=0;dropTarget=0;collapsible=0;recursiveResize=0;outlineConnect=0;portConstraint=eastwest;newEdgeStyle={&quot;edgeStyle&quot;:&quot;elbowEdgeStyle&quot;,&quot;elbow&quot;:&quot;vertical&quot;,&quot;curved&quot;:0,&quot;rounded&quot;:0};" parent="ElqWJp2YF02nGAWv7eCx-1" vertex="1">
          <mxGeometry x="643" y="700" width="100" height="430" as="geometry" />
        </mxCell>
        <mxCell id="iPzF9EMAjj-KMcbZVm3x-4" value="" style="html=1;points=[];perimeter=orthogonalPerimeter;outlineConnect=0;targetShapes=umlLifeline;portConstraint=eastwest;newEdgeStyle={&quot;edgeStyle&quot;:&quot;elbowEdgeStyle&quot;,&quot;elbow&quot;:&quot;vertical&quot;,&quot;curved&quot;:0,&quot;rounded&quot;:0};" parent="iPzF9EMAjj-KMcbZVm3x-3" vertex="1">
          <mxGeometry x="45" y="50" width="10" height="330" as="geometry" />
        </mxCell>
        <mxCell id="iPzF9EMAjj-KMcbZVm3x-5" value="" style="shape=umlDestroy;whiteSpace=wrap;html=1;strokeWidth=3;targetShapes=umlLifeline;" parent="iPzF9EMAjj-KMcbZVm3x-3" vertex="1">
          <mxGeometry x="40" y="410" width="20" height="20" as="geometry" />
        </mxCell>
        <mxCell id="iPzF9EMAjj-KMcbZVm3x-6" value="Show Feedback Details" style="html=1;verticalAlign=bottom;endArrow=block;edgeStyle=elbowEdgeStyle;elbow=horizontal;curved=0;rounded=0;" parent="ElqWJp2YF02nGAWv7eCx-1" edge="1">
          <mxGeometry relative="1" as="geometry">
            <mxPoint x="488" y="914.33" as="sourcePoint" />
            <Array as="points">
              <mxPoint x="590.5" y="914.33" />
              <mxPoint x="550.5" y="904.33" />
              <mxPoint x="620.5" y="774.33" />
              <mxPoint x="588" y="764.33" />
              <mxPoint x="568" y="794.33" />
            </Array>
            <mxPoint x="692.5" y="914.3299999999999" as="targetPoint" />
          </mxGeometry>
        </mxCell>
        <mxCell id="iPzF9EMAjj-KMcbZVm3x-7" value="Feedback Details&amp;nbsp;is not available" style="html=1;verticalAlign=bottom;endArrow=open;dashed=1;endSize=8;edgeStyle=elbowEdgeStyle;elbow=vertical;curved=0;rounded=0;" parent="ElqWJp2YF02nGAWv7eCx-1" edge="1">
          <mxGeometry x="-0.0008" relative="1" as="geometry">
            <mxPoint x="483" y="1028" as="targetPoint" />
            <Array as="points">
              <mxPoint x="533" y="1028" />
              <mxPoint x="623" y="1098" />
              <mxPoint x="603" y="1088" />
              <mxPoint x="583" y="1078" />
              <mxPoint x="563" y="1068" />
              <mxPoint x="578" y="1048" />
            </Array>
            <mxPoint as="offset" />
            <mxPoint x="688" y="1028" as="sourcePoint" />
          </mxGeometry>
        </mxCell>
        <mxCell id="iPzF9EMAjj-KMcbZVm3x-8" value="Feedback Details&amp;nbsp;is available" style="html=1;verticalAlign=bottom;endArrow=open;dashed=1;endSize=8;edgeStyle=elbowEdgeStyle;elbow=vertical;curved=0;rounded=0;" parent="ElqWJp2YF02nGAWv7eCx-1" edge="1">
          <mxGeometry relative="1" as="geometry">
            <mxPoint x="483" y="950" as="targetPoint" />
            <Array as="points">
              <mxPoint x="543" y="950" />
              <mxPoint x="583" y="990" />
              <mxPoint x="563" y="980" />
              <mxPoint x="573" y="980" />
            </Array>
            <mxPoint x="688" y="950" as="sourcePoint" />
          </mxGeometry>
        </mxCell>
        <mxCell id="iPzF9EMAjj-KMcbZVm3x-9" value="" style="endArrow=none;dashed=1;html=1;rounded=0;" parent="ElqWJp2YF02nGAWv7eCx-1" edge="1">
          <mxGeometry width="50" height="50" relative="1" as="geometry">
            <mxPoint x="93" y="1130" as="sourcePoint" />
            <mxPoint x="93" y="770" as="targetPoint" />
          </mxGeometry>
        </mxCell>
        <mxCell id="iPzF9EMAjj-KMcbZVm3x-10" value="Senior Project Manger" style="shape=umlActor;verticalLabelPosition=bottom;verticalAlign=top;html=1;outlineConnect=0;" parent="ElqWJp2YF02nGAWv7eCx-1" vertex="1">
          <mxGeometry x="83" y="680" width="20" height="40" as="geometry" />
        </mxCell>
        <mxCell id="iPzF9EMAjj-KMcbZVm3x-11" value="Alternative" style="shape=umlFrame;whiteSpace=wrap;html=1;pointerEvents=0;" parent="ElqWJp2YF02nGAWv7eCx-1" vertex="1">
          <mxGeometry x="53" y="930" width="680" height="140" as="geometry" />
        </mxCell>
        <mxCell id="iPzF9EMAjj-KMcbZVm3x-12" value="" style="line;strokeWidth=1;fillColor=none;align=left;verticalAlign=middle;spacingTop=-1;spacingLeft=3;spacingRight=3;rotatable=0;labelPosition=right;points=[];portConstraint=eastwest;strokeColor=inherit;" parent="ElqWJp2YF02nGAWv7eCx-1" vertex="1">
          <mxGeometry x="53" y="1000" width="680" height="8" as="geometry" />
        </mxCell>
        <mxCell id="iPzF9EMAjj-KMcbZVm3x-13" value="&lt;font style=&quot;&quot;&gt;&lt;b style=&quot;font-size: 16px;&quot;&gt;Sequence Diagram - Senior Project Manager View Client&#39;s Feedbacks&lt;/b&gt;&lt;/font&gt;&lt;b style=&quot;border-color: var(--border-color); font-size: 16px;&quot;&gt;&amp;nbsp;&lt;/b&gt;" style="text;html=1;strokeColor=none;fillColor=none;align=center;verticalAlign=middle;whiteSpace=wrap;rounded=0;" parent="ElqWJp2YF02nGAWv7eCx-1" vertex="1">
          <mxGeometry x="163" y="650" width="537" height="30" as="geometry" />
        </mxCell>
        <mxCell id="iPzF9EMAjj-KMcbZVm3x-14" value="Display Feedback Details" style="html=1;verticalAlign=bottom;endArrow=block;edgeStyle=elbowEdgeStyle;elbow=horizontal;curved=0;rounded=0;dashed=1;" parent="ElqWJp2YF02nGAWv7eCx-1" edge="1">
          <mxGeometry width="80" relative="1" as="geometry">
            <mxPoint x="264" y="990" as="sourcePoint" />
            <mxPoint x="94" y="990" as="targetPoint" />
            <Array as="points">
              <mxPoint x="184" y="990" />
            </Array>
          </mxGeometry>
        </mxCell>
        <mxCell id="iPzF9EMAjj-KMcbZVm3x-15" value="Display Nothing" style="html=1;verticalAlign=bottom;endArrow=block;edgeStyle=elbowEdgeStyle;elbow=vertical;curved=0;rounded=0;dashed=1;" parent="ElqWJp2YF02nGAWv7eCx-1" edge="1">
          <mxGeometry width="80" relative="1" as="geometry">
            <mxPoint x="264" y="1060" as="sourcePoint" />
            <mxPoint x="94" y="1060" as="targetPoint" />
          </mxGeometry>
        </mxCell>
        <mxCell id="iPzF9EMAjj-KMcbZVm3x-16" value="&lt;font style=&quot;font-size: 11px;&quot;&gt;&lt;b style=&quot;&quot;&gt;[if&amp;nbsp;&lt;/b&gt;Feedback Details&lt;span style=&quot;&quot;&gt;&lt;b&gt;&amp;nbsp;available&lt;/b&gt;&lt;/span&gt;&lt;b style=&quot;&quot;&gt;]&lt;/b&gt;&lt;/font&gt;" style="text;html=1;strokeColor=none;fillColor=none;align=left;verticalAlign=middle;whiteSpace=wrap;rounded=0;" parent="ElqWJp2YF02nGAWv7eCx-1" vertex="1">
          <mxGeometry x="115.5" y="930" width="174.5" height="10" as="geometry" />
        </mxCell>
        <mxCell id="iPzF9EMAjj-KMcbZVm3x-17" value="&lt;font style=&quot;font-size: 10px;&quot;&gt;&lt;b&gt;[else]&lt;/b&gt;&lt;/font&gt;" style="text;html=1;strokeColor=none;fillColor=none;align=left;verticalAlign=middle;whiteSpace=wrap;rounded=0;" parent="ElqWJp2YF02nGAWv7eCx-1" vertex="1">
          <mxGeometry x="94" y="1008" width="80" height="10" as="geometry" />
        </mxCell>
        <mxCell id="iPzF9EMAjj-KMcbZVm3x-18" value="Select the Feedback" style="html=1;verticalAlign=bottom;endArrow=blockThin;edgeStyle=elbowEdgeStyle;elbow=vertical;curved=0;rounded=0;endFill=1;" parent="ElqWJp2YF02nGAWv7eCx-1" edge="1">
          <mxGeometry relative="1" as="geometry">
            <mxPoint x="268" y="820" as="targetPoint" />
            <Array as="points">
              <mxPoint x="206.25" y="820" />
              <mxPoint x="173.75" y="840" />
            </Array>
            <mxPoint x="94.25" y="820" as="sourcePoint" />
            <mxPoint as="offset" />
          </mxGeometry>
        </mxCell>
        <mxCell id="iPzF9EMAjj-KMcbZVm3x-19" value="System" style="shape=umlLifeline;perimeter=lifelinePerimeter;whiteSpace=wrap;html=1;container=0;dropTarget=0;collapsible=0;recursiveResize=0;outlineConnect=0;portConstraint=eastwest;newEdgeStyle={&quot;edgeStyle&quot;:&quot;elbowEdgeStyle&quot;,&quot;elbow&quot;:&quot;vertical&quot;,&quot;curved&quot;:0,&quot;rounded&quot;:0};" parent="ElqWJp2YF02nGAWv7eCx-1" vertex="1">
          <mxGeometry x="433" y="700" width="100" height="430" as="geometry" />
        </mxCell>
        <mxCell id="iPzF9EMAjj-KMcbZVm3x-20" value="" style="html=1;points=[];perimeter=orthogonalPerimeter;outlineConnect=0;targetShapes=umlLifeline;portConstraint=eastwest;newEdgeStyle={&quot;edgeStyle&quot;:&quot;elbowEdgeStyle&quot;,&quot;elbow&quot;:&quot;vertical&quot;,&quot;curved&quot;:0,&quot;rounded&quot;:0};" parent="iPzF9EMAjj-KMcbZVm3x-19" vertex="1">
          <mxGeometry x="45" y="50" width="10" height="330" as="geometry" />
        </mxCell>
        <mxCell id="iPzF9EMAjj-KMcbZVm3x-21" value="" style="shape=umlDestroy;whiteSpace=wrap;html=1;strokeWidth=3;targetShapes=umlLifeline;" parent="iPzF9EMAjj-KMcbZVm3x-19" vertex="1">
          <mxGeometry x="40" y="410" width="20" height="20" as="geometry" />
        </mxCell>
        <mxCell id="iPzF9EMAjj-KMcbZVm3x-22" value="Selected Feedback" style="html=1;verticalAlign=bottom;endArrow=block;edgeStyle=elbowEdgeStyle;elbow=vertical;curved=0;rounded=0;" parent="ElqWJp2YF02nGAWv7eCx-1" edge="1">
          <mxGeometry relative="1" as="geometry">
            <mxPoint x="283" y="870" as="sourcePoint" />
            <Array as="points">
              <mxPoint x="385.5" y="870" />
              <mxPoint x="345.5" y="860" />
              <mxPoint x="415.5" y="730" />
              <mxPoint x="383" y="720" />
              <mxPoint x="363" y="750" />
            </Array>
            <mxPoint x="473" y="870" as="targetPoint" />
          </mxGeometry>
        </mxCell>
        <mxCell id="iPzF9EMAjj-KMcbZVm3x-23" value="Feedback Details" style="html=1;verticalAlign=bottom;endArrow=block;edgeStyle=elbowEdgeStyle;elbow=vertical;curved=0;rounded=0;dashed=1;" parent="ElqWJp2YF02nGAWv7eCx-1" edge="1">
          <mxGeometry width="80" relative="1" as="geometry">
            <mxPoint x="473.5" y="970" as="sourcePoint" />
            <mxPoint x="274" y="970" as="targetPoint" />
            <Array as="points">
              <mxPoint x="364" y="970" />
            </Array>
          </mxGeometry>
        </mxCell>
        <mxCell id="iPzF9EMAjj-KMcbZVm3x-24" value="No Feedback Details" style="html=1;verticalAlign=bottom;endArrow=block;edgeStyle=elbowEdgeStyle;elbow=vertical;curved=0;rounded=0;dashed=1;" parent="ElqWJp2YF02nGAWv7eCx-1" edge="1">
          <mxGeometry x="0.0025" width="80" relative="1" as="geometry">
            <mxPoint x="472.5" y="1040" as="sourcePoint" />
            <mxPoint x="273" y="1040" as="targetPoint" />
            <Array as="points">
              <mxPoint x="363" y="1040" />
            </Array>
            <mxPoint as="offset" />
          </mxGeometry>
        </mxCell>
      </root>
    </mxGraphModel>
  </diagram>
  <diagram id="pJOnNxO1Akl9-6BFt-5p" name="5">
    <mxGraphModel dx="1032" dy="580" grid="1" gridSize="10" guides="1" tooltips="1" connect="1" arrows="1" fold="1" page="1" pageScale="1" pageWidth="827" pageHeight="1169" math="0" shadow="0">
      <root>
        <mxCell id="0" />
        <mxCell id="1" parent="0" />
        <mxCell id="NPLq_i5eK3-q9skWz5g1-1" value="UI" style="shape=umlLifeline;perimeter=lifelinePerimeter;whiteSpace=wrap;html=1;container=0;dropTarget=0;collapsible=0;recursiveResize=0;outlineConnect=0;portConstraint=eastwest;newEdgeStyle={&quot;edgeStyle&quot;:&quot;elbowEdgeStyle&quot;,&quot;elbow&quot;:&quot;vertical&quot;,&quot;curved&quot;:0,&quot;rounded&quot;:0};" parent="1" vertex="1">
          <mxGeometry x="239" y="90" width="100" height="440" as="geometry" />
        </mxCell>
        <mxCell id="NPLq_i5eK3-q9skWz5g1-2" value="" style="html=1;points=[];perimeter=orthogonalPerimeter;outlineConnect=0;targetShapes=umlLifeline;portConstraint=eastwest;newEdgeStyle={&quot;edgeStyle&quot;:&quot;elbowEdgeStyle&quot;,&quot;elbow&quot;:&quot;vertical&quot;,&quot;curved&quot;:0,&quot;rounded&quot;:0};" parent="NPLq_i5eK3-q9skWz5g1-1" vertex="1">
          <mxGeometry x="45" y="50" width="10" height="330" as="geometry" />
        </mxCell>
        <mxCell id="NPLq_i5eK3-q9skWz5g1-3" value="" style="shape=umlDestroy;whiteSpace=wrap;html=1;strokeWidth=3;targetShapes=umlLifeline;" parent="NPLq_i5eK3-q9skWz5g1-1" vertex="1">
          <mxGeometry x="40" y="410" width="20" height="20" as="geometry" />
        </mxCell>
        <mxCell id="NPLq_i5eK3-q9skWz5g1-4" value="Database" style="shape=umlLifeline;perimeter=lifelinePerimeter;whiteSpace=wrap;html=1;container=0;dropTarget=0;collapsible=0;recursiveResize=0;outlineConnect=0;portConstraint=eastwest;newEdgeStyle={&quot;edgeStyle&quot;:&quot;elbowEdgeStyle&quot;,&quot;elbow&quot;:&quot;vertical&quot;,&quot;curved&quot;:0,&quot;rounded&quot;:0};" parent="1" vertex="1">
          <mxGeometry x="659" y="90" width="100" height="430" as="geometry" />
        </mxCell>
        <mxCell id="NPLq_i5eK3-q9skWz5g1-5" value="" style="html=1;points=[];perimeter=orthogonalPerimeter;outlineConnect=0;targetShapes=umlLifeline;portConstraint=eastwest;newEdgeStyle={&quot;edgeStyle&quot;:&quot;elbowEdgeStyle&quot;,&quot;elbow&quot;:&quot;vertical&quot;,&quot;curved&quot;:0,&quot;rounded&quot;:0};" parent="NPLq_i5eK3-q9skWz5g1-4" vertex="1">
          <mxGeometry x="45" y="50" width="10" height="330" as="geometry" />
        </mxCell>
        <mxCell id="NPLq_i5eK3-q9skWz5g1-6" value="" style="shape=umlDestroy;whiteSpace=wrap;html=1;strokeWidth=3;targetShapes=umlLifeline;" parent="NPLq_i5eK3-q9skWz5g1-4" vertex="1">
          <mxGeometry x="40" y="410" width="20" height="20" as="geometry" />
        </mxCell>
        <mxCell id="NPLq_i5eK3-q9skWz5g1-7" value="Add the Project Plan Details" style="html=1;verticalAlign=bottom;endArrow=block;edgeStyle=elbowEdgeStyle;elbow=vertical;curved=0;rounded=0;" parent="1" edge="1">
          <mxGeometry x="-0.0024" relative="1" as="geometry">
            <mxPoint x="504" y="304.33000000000004" as="sourcePoint" />
            <Array as="points">
              <mxPoint x="606.5" y="304.33000000000004" />
              <mxPoint x="566.5" y="294.33000000000004" />
              <mxPoint x="636.5" y="164.33000000000004" />
              <mxPoint x="604" y="154.33000000000004" />
              <mxPoint x="584" y="184.33000000000004" />
            </Array>
            <mxPoint x="708.5" y="304.3299999999999" as="targetPoint" />
            <mxPoint as="offset" />
          </mxGeometry>
        </mxCell>
        <mxCell id="NPLq_i5eK3-q9skWz5g1-8" value="Prpject Plan Details Not Saved" style="html=1;verticalAlign=bottom;endArrow=open;dashed=1;endSize=8;edgeStyle=elbowEdgeStyle;elbow=vertical;curved=0;rounded=0;" parent="1" edge="1">
          <mxGeometry x="-0.0008" relative="1" as="geometry">
            <mxPoint x="499" y="418" as="targetPoint" />
            <Array as="points">
              <mxPoint x="549" y="418" />
              <mxPoint x="639" y="488" />
              <mxPoint x="619" y="478" />
              <mxPoint x="599" y="468" />
              <mxPoint x="579" y="458" />
              <mxPoint x="594" y="438" />
            </Array>
            <mxPoint as="offset" />
            <mxPoint x="704" y="418" as="sourcePoint" />
          </mxGeometry>
        </mxCell>
        <mxCell id="NPLq_i5eK3-q9skWz5g1-9" value="Project Plan Details Saved Successfully" style="html=1;verticalAlign=bottom;endArrow=open;dashed=1;endSize=8;edgeStyle=elbowEdgeStyle;elbow=horizontal;curved=0;rounded=0;" parent="1" edge="1">
          <mxGeometry relative="1" as="geometry">
            <mxPoint x="499" y="340" as="targetPoint" />
            <Array as="points">
              <mxPoint x="559" y="340" />
              <mxPoint x="599" y="380" />
              <mxPoint x="579" y="370" />
              <mxPoint x="589" y="370" />
            </Array>
            <mxPoint x="704" y="340" as="sourcePoint" />
          </mxGeometry>
        </mxCell>
        <mxCell id="NPLq_i5eK3-q9skWz5g1-10" value="" style="endArrow=none;dashed=1;html=1;rounded=0;" parent="1" edge="1">
          <mxGeometry width="50" height="50" relative="1" as="geometry">
            <mxPoint x="109" y="520" as="sourcePoint" />
            <mxPoint x="109" y="160" as="targetPoint" />
          </mxGeometry>
        </mxCell>
        <mxCell id="NPLq_i5eK3-q9skWz5g1-11" value="Senior Project Manger" style="shape=umlActor;verticalLabelPosition=bottom;verticalAlign=top;html=1;outlineConnect=0;" parent="1" vertex="1">
          <mxGeometry x="99" y="70" width="20" height="40" as="geometry" />
        </mxCell>
        <mxCell id="NPLq_i5eK3-q9skWz5g1-12" value="Alternative" style="shape=umlFrame;whiteSpace=wrap;html=1;pointerEvents=0;" parent="1" vertex="1">
          <mxGeometry x="69" y="320" width="680" height="140" as="geometry" />
        </mxCell>
        <mxCell id="NPLq_i5eK3-q9skWz5g1-13" value="" style="line;strokeWidth=1;fillColor=none;align=left;verticalAlign=middle;spacingTop=-1;spacingLeft=3;spacingRight=3;rotatable=0;labelPosition=right;points=[];portConstraint=eastwest;strokeColor=inherit;" parent="1" vertex="1">
          <mxGeometry x="69" y="390" width="680" height="8" as="geometry" />
        </mxCell>
        <mxCell id="NPLq_i5eK3-q9skWz5g1-14" value="&lt;font style=&quot;&quot;&gt;&lt;b style=&quot;font-size: 16px;&quot;&gt;Sequence Diagram - Senior Project Manager Add New Project&lt;/b&gt;&lt;/font&gt;&lt;b style=&quot;border-color: var(--border-color); font-size: 16px;&quot;&gt;&amp;nbsp;Plan&lt;/b&gt;" style="text;html=1;strokeColor=none;fillColor=none;align=center;verticalAlign=middle;whiteSpace=wrap;rounded=0;" parent="1" vertex="1">
          <mxGeometry x="179" y="40" width="510" height="30" as="geometry" />
        </mxCell>
        <mxCell id="NPLq_i5eK3-q9skWz5g1-15" value="Display Project Plan &lt;br&gt;Details Added Succesfully" style="html=1;verticalAlign=bottom;endArrow=block;edgeStyle=elbowEdgeStyle;elbow=vertical;curved=0;rounded=0;dashed=1;" parent="1" edge="1">
          <mxGeometry width="80" relative="1" as="geometry">
            <mxPoint x="280" y="380" as="sourcePoint" />
            <mxPoint x="110" y="380" as="targetPoint" />
            <Array as="points">
              <mxPoint x="200" y="380" />
            </Array>
          </mxGeometry>
        </mxCell>
        <mxCell id="NPLq_i5eK3-q9skWz5g1-16" value="Display Error Message" style="html=1;verticalAlign=bottom;endArrow=block;edgeStyle=elbowEdgeStyle;elbow=vertical;curved=0;rounded=0;dashed=1;" parent="1" edge="1">
          <mxGeometry width="80" relative="1" as="geometry">
            <mxPoint x="280" y="450" as="sourcePoint" />
            <mxPoint x="110" y="450" as="targetPoint" />
          </mxGeometry>
        </mxCell>
        <mxCell id="NPLq_i5eK3-q9skWz5g1-17" value="&lt;font style=&quot;&quot;&gt;&lt;b style=&quot;font-size: 10px;&quot;&gt;[if project Plan Details Added Successfully&lt;/b&gt;&lt;/font&gt;" style="text;html=1;strokeColor=none;fillColor=none;align=left;verticalAlign=middle;whiteSpace=wrap;rounded=0;" parent="1" vertex="1">
          <mxGeometry x="136" y="330" width="148.5" height="10" as="geometry" />
        </mxCell>
        <mxCell id="NPLq_i5eK3-q9skWz5g1-18" value="&lt;font style=&quot;font-size: 10px;&quot;&gt;&lt;b&gt;[else]&lt;/b&gt;&lt;/font&gt;" style="text;html=1;strokeColor=none;fillColor=none;align=left;verticalAlign=middle;whiteSpace=wrap;rounded=0;" parent="1" vertex="1">
          <mxGeometry x="110" y="398" width="80" height="10" as="geometry" />
        </mxCell>
        <mxCell id="NPLq_i5eK3-q9skWz5g1-19" value="Add the Project Plan Details" style="html=1;verticalAlign=bottom;endArrow=blockThin;edgeStyle=elbowEdgeStyle;elbow=vertical;curved=0;rounded=0;endFill=1;" parent="1" edge="1">
          <mxGeometry relative="1" as="geometry">
            <mxPoint x="284" y="210" as="targetPoint" />
            <Array as="points">
              <mxPoint x="222.25" y="210" />
              <mxPoint x="189.75" y="230" />
            </Array>
            <mxPoint x="110.25" y="210" as="sourcePoint" />
            <mxPoint as="offset" />
          </mxGeometry>
        </mxCell>
        <mxCell id="NPLq_i5eK3-q9skWz5g1-20" value="System" style="shape=umlLifeline;perimeter=lifelinePerimeter;whiteSpace=wrap;html=1;container=0;dropTarget=0;collapsible=0;recursiveResize=0;outlineConnect=0;portConstraint=eastwest;newEdgeStyle={&quot;edgeStyle&quot;:&quot;elbowEdgeStyle&quot;,&quot;elbow&quot;:&quot;vertical&quot;,&quot;curved&quot;:0,&quot;rounded&quot;:0};" parent="1" vertex="1">
          <mxGeometry x="449" y="90" width="100" height="430" as="geometry" />
        </mxCell>
        <mxCell id="NPLq_i5eK3-q9skWz5g1-21" value="" style="html=1;points=[];perimeter=orthogonalPerimeter;outlineConnect=0;targetShapes=umlLifeline;portConstraint=eastwest;newEdgeStyle={&quot;edgeStyle&quot;:&quot;elbowEdgeStyle&quot;,&quot;elbow&quot;:&quot;vertical&quot;,&quot;curved&quot;:0,&quot;rounded&quot;:0};" parent="NPLq_i5eK3-q9skWz5g1-20" vertex="1">
          <mxGeometry x="45" y="50" width="10" height="330" as="geometry" />
        </mxCell>
        <mxCell id="NPLq_i5eK3-q9skWz5g1-22" value="" style="shape=umlDestroy;whiteSpace=wrap;html=1;strokeWidth=3;targetShapes=umlLifeline;" parent="NPLq_i5eK3-q9skWz5g1-20" vertex="1">
          <mxGeometry x="40" y="410" width="20" height="20" as="geometry" />
        </mxCell>
        <mxCell id="NPLq_i5eK3-q9skWz5g1-23" value="Added Project Plan Details" style="html=1;verticalAlign=bottom;endArrow=block;edgeStyle=elbowEdgeStyle;elbow=vertical;curved=0;rounded=0;" parent="1" edge="1">
          <mxGeometry relative="1" as="geometry">
            <mxPoint x="299" y="260" as="sourcePoint" />
            <Array as="points">
              <mxPoint x="401.5" y="260" />
              <mxPoint x="361.5" y="250" />
              <mxPoint x="431.5" y="120" />
              <mxPoint x="399" y="110" />
              <mxPoint x="379" y="140" />
            </Array>
            <mxPoint x="489" y="260" as="targetPoint" />
          </mxGeometry>
        </mxCell>
        <mxCell id="NPLq_i5eK3-q9skWz5g1-24" value="Saved Successfully" style="html=1;verticalAlign=bottom;endArrow=block;edgeStyle=elbowEdgeStyle;elbow=vertical;curved=0;rounded=0;dashed=1;" parent="1" edge="1">
          <mxGeometry width="80" relative="1" as="geometry">
            <mxPoint x="489.5" y="360" as="sourcePoint" />
            <mxPoint x="290" y="360" as="targetPoint" />
            <Array as="points">
              <mxPoint x="380" y="360" />
            </Array>
          </mxGeometry>
        </mxCell>
        <mxCell id="NPLq_i5eK3-q9skWz5g1-25" value="Not Saved" style="html=1;verticalAlign=bottom;endArrow=block;edgeStyle=elbowEdgeStyle;elbow=vertical;curved=0;rounded=0;dashed=1;" parent="1" edge="1">
          <mxGeometry width="80" relative="1" as="geometry">
            <mxPoint x="488.5" y="430" as="sourcePoint" />
            <mxPoint x="289" y="430" as="targetPoint" />
            <Array as="points">
              <mxPoint x="379" y="430" />
            </Array>
          </mxGeometry>
        </mxCell>
        <mxCell id="NPLq_i5eK3-q9skWz5g1-26" value="&lt;font style=&quot;border-color: var(--border-color);&quot;&gt;&lt;b style=&quot;border-color: var(--border-color); font-size: 16px;&quot;&gt;Sequence Diagram - Senior Project Manager Update Existing Project Plan&lt;/b&gt;&lt;/font&gt;" style="text;html=1;strokeColor=none;fillColor=none;align=center;verticalAlign=middle;whiteSpace=wrap;rounded=0;" parent="1" vertex="1">
          <mxGeometry x="119" y="570" width="610" height="30" as="geometry" />
        </mxCell>
        <mxCell id="NPLq_i5eK3-q9skWz5g1-27" value="UI" style="shape=umlLifeline;perimeter=lifelinePerimeter;whiteSpace=wrap;html=1;container=0;dropTarget=0;collapsible=0;recursiveResize=0;outlineConnect=0;portConstraint=eastwest;newEdgeStyle={&quot;edgeStyle&quot;:&quot;elbowEdgeStyle&quot;,&quot;elbow&quot;:&quot;vertical&quot;,&quot;curved&quot;:0,&quot;rounded&quot;:0};" parent="1" vertex="1">
          <mxGeometry x="231" y="640" width="100" height="470" as="geometry" />
        </mxCell>
        <mxCell id="NPLq_i5eK3-q9skWz5g1-28" value="" style="html=1;points=[];perimeter=orthogonalPerimeter;outlineConnect=0;targetShapes=umlLifeline;portConstraint=eastwest;newEdgeStyle={&quot;edgeStyle&quot;:&quot;elbowEdgeStyle&quot;,&quot;elbow&quot;:&quot;vertical&quot;,&quot;curved&quot;:0,&quot;rounded&quot;:0};" parent="NPLq_i5eK3-q9skWz5g1-27" vertex="1">
          <mxGeometry x="45" y="60" width="10" height="360" as="geometry" />
        </mxCell>
        <mxCell id="NPLq_i5eK3-q9skWz5g1-29" value="" style="shape=umlDestroy;whiteSpace=wrap;html=1;strokeWidth=3;targetShapes=umlLifeline;" parent="NPLq_i5eK3-q9skWz5g1-27" vertex="1">
          <mxGeometry x="40" y="450" width="20" height="20" as="geometry" />
        </mxCell>
        <mxCell id="NPLq_i5eK3-q9skWz5g1-30" value="Database" style="shape=umlLifeline;perimeter=lifelinePerimeter;whiteSpace=wrap;html=1;container=0;dropTarget=0;collapsible=0;recursiveResize=0;outlineConnect=0;portConstraint=eastwest;newEdgeStyle={&quot;edgeStyle&quot;:&quot;elbowEdgeStyle&quot;,&quot;elbow&quot;:&quot;vertical&quot;,&quot;curved&quot;:0,&quot;rounded&quot;:0};" parent="1" vertex="1">
          <mxGeometry x="649" y="640" width="100" height="470" as="geometry" />
        </mxCell>
        <mxCell id="NPLq_i5eK3-q9skWz5g1-31" value="" style="html=1;points=[];perimeter=orthogonalPerimeter;outlineConnect=0;targetShapes=umlLifeline;portConstraint=eastwest;newEdgeStyle={&quot;edgeStyle&quot;:&quot;elbowEdgeStyle&quot;,&quot;elbow&quot;:&quot;vertical&quot;,&quot;curved&quot;:0,&quot;rounded&quot;:0};" parent="NPLq_i5eK3-q9skWz5g1-30" vertex="1">
          <mxGeometry x="47" y="90" width="10" height="340" as="geometry" />
        </mxCell>
        <mxCell id="NPLq_i5eK3-q9skWz5g1-32" value="" style="shape=umlDestroy;whiteSpace=wrap;html=1;strokeWidth=3;targetShapes=umlLifeline;" parent="NPLq_i5eK3-q9skWz5g1-30" vertex="1">
          <mxGeometry x="40" y="450" width="20" height="20" as="geometry" />
        </mxCell>
        <mxCell id="NPLq_i5eK3-q9skWz5g1-33" value="" style="endArrow=none;dashed=1;html=1;rounded=0;" parent="1" target="NPLq_i5eK3-q9skWz5g1-34" edge="1">
          <mxGeometry width="50" height="50" relative="1" as="geometry">
            <mxPoint x="100" y="1100" as="sourcePoint" />
            <mxPoint x="101" y="730" as="targetPoint" />
          </mxGeometry>
        </mxCell>
        <mxCell id="NPLq_i5eK3-q9skWz5g1-34" value="Senior Project Manager" style="shape=umlActor;verticalLabelPosition=bottom;verticalAlign=top;html=1;outlineConnect=0;" parent="1" vertex="1">
          <mxGeometry x="91" y="620" width="20" height="40" as="geometry" />
        </mxCell>
        <mxCell id="NPLq_i5eK3-q9skWz5g1-35" value="System" style="shape=umlLifeline;perimeter=lifelinePerimeter;whiteSpace=wrap;html=1;container=0;dropTarget=0;collapsible=0;recursiveResize=0;outlineConnect=0;portConstraint=eastwest;newEdgeStyle={&quot;edgeStyle&quot;:&quot;elbowEdgeStyle&quot;,&quot;elbow&quot;:&quot;vertical&quot;,&quot;curved&quot;:0,&quot;rounded&quot;:0};size=40;" parent="1" vertex="1">
          <mxGeometry x="427" y="640" width="130" height="470" as="geometry" />
        </mxCell>
        <mxCell id="NPLq_i5eK3-q9skWz5g1-36" value="" style="html=1;points=[];perimeter=orthogonalPerimeter;outlineConnect=0;targetShapes=umlLifeline;portConstraint=eastwest;newEdgeStyle={&quot;edgeStyle&quot;:&quot;elbowEdgeStyle&quot;,&quot;elbow&quot;:&quot;vertical&quot;,&quot;curved&quot;:0,&quot;rounded&quot;:0};" parent="NPLq_i5eK3-q9skWz5g1-35" vertex="1">
          <mxGeometry x="60" y="70" width="10" height="350" as="geometry" />
        </mxCell>
        <mxCell id="NPLq_i5eK3-q9skWz5g1-37" value="" style="shape=umlDestroy;whiteSpace=wrap;html=1;strokeWidth=3;targetShapes=umlLifeline;" parent="NPLq_i5eK3-q9skWz5g1-35" vertex="1">
          <mxGeometry x="55" y="450" width="20" height="20" as="geometry" />
        </mxCell>
        <mxCell id="NPLq_i5eK3-q9skWz5g1-38" value="Entered Details Not Updated" style="html=1;verticalAlign=bottom;endArrow=open;dashed=1;endSize=8;edgeStyle=elbowEdgeStyle;elbow=vertical;curved=0;rounded=0;" parent="1" edge="1">
          <mxGeometry x="-0.0008" relative="1" as="geometry">
            <mxPoint x="501" y="980" as="targetPoint" />
            <Array as="points">
              <mxPoint x="551" y="980" />
              <mxPoint x="641" y="1050" />
              <mxPoint x="621" y="1040" />
              <mxPoint x="601" y="1030" />
              <mxPoint x="581" y="1020" />
              <mxPoint x="596" y="1000" />
            </Array>
            <mxPoint as="offset" />
            <mxPoint x="691" y="980" as="sourcePoint" />
          </mxGeometry>
        </mxCell>
        <mxCell id="NPLq_i5eK3-q9skWz5g1-39" value="" style="html=1;verticalAlign=bottom;endArrow=open;dashed=1;endSize=8;edgeStyle=elbowEdgeStyle;elbow=vertical;curved=0;rounded=0;" parent="1" edge="1">
          <mxGeometry x="-0.206" relative="1" as="geometry">
            <mxPoint x="492" y="912.5" as="targetPoint" />
            <Array as="points">
              <mxPoint x="546" y="912.5" />
              <mxPoint x="586" y="952.5" />
              <mxPoint x="566" y="942.5" />
              <mxPoint x="576" y="942.5" />
            </Array>
            <mxPoint x="691" y="912.5" as="sourcePoint" />
            <mxPoint as="offset" />
          </mxGeometry>
        </mxCell>
        <mxCell id="NPLq_i5eK3-q9skWz5g1-40" value="Entered Details Updated Successfully" style="edgeLabel;html=1;align=center;verticalAlign=middle;resizable=0;points=[];" parent="NPLq_i5eK3-q9skWz5g1-39" vertex="1" connectable="0">
          <mxGeometry x="-0.0814" y="-3" relative="1" as="geometry">
            <mxPoint y="-8" as="offset" />
          </mxGeometry>
        </mxCell>
        <mxCell id="NPLq_i5eK3-q9skWz5g1-41" value="Alternative" style="shape=umlFrame;whiteSpace=wrap;html=1;pointerEvents=0;" parent="1" vertex="1">
          <mxGeometry x="55" y="890" width="690" height="120" as="geometry" />
        </mxCell>
        <mxCell id="NPLq_i5eK3-q9skWz5g1-42" value="" style="line;strokeWidth=1;fillColor=none;align=left;verticalAlign=middle;spacingTop=-1;spacingLeft=3;spacingRight=3;rotatable=0;labelPosition=right;points=[];portConstraint=eastwest;strokeColor=inherit;" parent="1" vertex="1">
          <mxGeometry x="55" y="951.25" width="694" height="8" as="geometry" />
        </mxCell>
        <mxCell id="NPLq_i5eK3-q9skWz5g1-43" value="Display Project Plan&lt;br&gt;Details Updated Successfully&amp;nbsp;" style="html=1;verticalAlign=bottom;endArrow=block;edgeStyle=elbowEdgeStyle;elbow=vertical;curved=0;rounded=0;dashed=1;" parent="1" edge="1">
          <mxGeometry y="-5" width="80" relative="1" as="geometry">
            <mxPoint x="276" y="941.25" as="sourcePoint" />
            <mxPoint x="96" y="941.25" as="targetPoint" />
            <Array as="points">
              <mxPoint x="201" y="941.25" />
            </Array>
            <mxPoint as="offset" />
          </mxGeometry>
        </mxCell>
        <mxCell id="NPLq_i5eK3-q9skWz5g1-44" value="Display Error Message&amp;nbsp;" style="html=1;verticalAlign=bottom;endArrow=block;edgeStyle=elbowEdgeStyle;elbow=vertical;curved=0;rounded=0;dashed=1;" parent="1" edge="1">
          <mxGeometry width="80" relative="1" as="geometry">
            <mxPoint x="270" y="995.25" as="sourcePoint" />
            <mxPoint x="100" y="995.25" as="targetPoint" />
            <mxPoint as="offset" />
          </mxGeometry>
        </mxCell>
        <mxCell id="NPLq_i5eK3-q9skWz5g1-45" value="&lt;span style=&quot;font-size: 10px;&quot;&gt;&lt;b&gt;[if Project Plan Details Updated ]&lt;/b&gt;&lt;/span&gt;" style="text;html=1;strokeColor=none;fillColor=none;align=left;verticalAlign=middle;whiteSpace=wrap;rounded=0;" parent="1" vertex="1">
          <mxGeometry x="115" y="890" width="165" height="22.5" as="geometry" />
        </mxCell>
        <mxCell id="NPLq_i5eK3-q9skWz5g1-46" value="&lt;font style=&quot;font-size: 10px;&quot;&gt;&lt;b&gt;[else]&lt;/b&gt;&lt;/font&gt;" style="text;html=1;strokeColor=none;fillColor=none;align=left;verticalAlign=middle;whiteSpace=wrap;rounded=0;" parent="1" vertex="1">
          <mxGeometry x="56" y="959.25" width="80" height="10" as="geometry" />
        </mxCell>
        <mxCell id="NPLq_i5eK3-q9skWz5g1-47" value="Changed Necessary Details&amp;nbsp;" style="html=1;verticalAlign=bottom;endArrow=block;edgeStyle=elbowEdgeStyle;elbow=vertical;curved=0;rounded=0;" parent="1" edge="1">
          <mxGeometry width="80" relative="1" as="geometry">
            <mxPoint x="103" y="750" as="sourcePoint" />
            <mxPoint x="281" y="750" as="targetPoint" />
            <Array as="points">
              <mxPoint x="102" y="750" />
            </Array>
          </mxGeometry>
        </mxCell>
        <mxCell id="NPLq_i5eK3-q9skWz5g1-48" value="Changed Details&amp;nbsp;" style="html=1;verticalAlign=bottom;endArrow=block;edgeStyle=elbowEdgeStyle;elbow=vertical;curved=0;rounded=0;" parent="1" edge="1">
          <mxGeometry width="80" relative="1" as="geometry">
            <mxPoint x="283.75" y="800" as="sourcePoint" />
            <mxPoint x="485.25" y="800" as="targetPoint" />
            <Array as="points" />
          </mxGeometry>
        </mxCell>
        <mxCell id="NPLq_i5eK3-q9skWz5g1-49" value="Update Entered Details&amp;nbsp;" style="html=1;verticalAlign=bottom;endArrow=block;edgeStyle=elbowEdgeStyle;elbow=vertical;curved=0;rounded=0;" parent="1" edge="1">
          <mxGeometry width="80" relative="1" as="geometry">
            <mxPoint x="501" y="840" as="sourcePoint" />
            <mxPoint x="701" y="840" as="targetPoint" />
            <Array as="points" />
          </mxGeometry>
        </mxCell>
        <mxCell id="NPLq_i5eK3-q9skWz5g1-50" value="" style="html=1;verticalAlign=bottom;endArrow=open;dashed=1;endSize=8;edgeStyle=elbowEdgeStyle;elbow=vertical;curved=0;rounded=0;" parent="1" edge="1">
          <mxGeometry x="-0.206" relative="1" as="geometry">
            <mxPoint x="289" y="922.5" as="targetPoint" />
            <Array as="points">
              <mxPoint x="343" y="922.5" />
              <mxPoint x="383" y="962.5" />
              <mxPoint x="363" y="952.5" />
              <mxPoint x="373" y="952.5" />
            </Array>
            <mxPoint x="488" y="922.5" as="sourcePoint" />
            <mxPoint as="offset" />
          </mxGeometry>
        </mxCell>
        <mxCell id="NPLq_i5eK3-q9skWz5g1-51" value="Entered Details Updated Successfully" style="edgeLabel;html=1;align=center;verticalAlign=middle;resizable=0;points=[];" parent="NPLq_i5eK3-q9skWz5g1-50" vertex="1" connectable="0">
          <mxGeometry x="-0.0814" y="-3" relative="1" as="geometry">
            <mxPoint x="-7" y="-7" as="offset" />
          </mxGeometry>
        </mxCell>
        <mxCell id="NPLq_i5eK3-q9skWz5g1-52" value="Entered Details Not Updated&amp;nbsp;" style="html=1;verticalAlign=bottom;endArrow=open;dashed=1;endSize=8;edgeStyle=elbowEdgeStyle;elbow=vertical;curved=0;rounded=0;" parent="1" edge="1">
          <mxGeometry x="-0.0026" relative="1" as="geometry">
            <mxPoint x="291" y="990" as="targetPoint" />
            <Array as="points">
              <mxPoint x="343.5" y="990" />
              <mxPoint x="433.5" y="1060" />
              <mxPoint x="413.5" y="1050" />
              <mxPoint x="393.5" y="1040" />
              <mxPoint x="373.5" y="1030" />
              <mxPoint x="388.5" y="1010" />
            </Array>
            <mxPoint as="offset" />
            <mxPoint x="483.5" y="990" as="sourcePoint" />
          </mxGeometry>
        </mxCell>
      </root>
    </mxGraphModel>
  </diagram>
  <diagram id="Kru4ICM7iTM4zpzb1PC9" name="6">
    <mxGraphModel dx="1032" dy="580" grid="1" gridSize="10" guides="1" tooltips="1" connect="1" arrows="1" fold="1" page="1" pageScale="1" pageWidth="827" pageHeight="1169" math="0" shadow="0">
      <root>
        <mxCell id="0" />
        <mxCell id="1" parent="0" />
        <mxCell id="abhu93Ytleb-flPvAil3-1" value="&lt;font style=&quot;border-color: var(--border-color);&quot;&gt;&lt;b style=&quot;border-color: var(--border-color); font-size: 16px;&quot;&gt;Sequence Diagram - Senior Project Manager Send Employee Request for Project From Resource Manager&lt;/b&gt;&lt;/font&gt;" style="text;html=1;strokeColor=none;fillColor=none;align=center;verticalAlign=middle;whiteSpace=wrap;rounded=0;" parent="1" vertex="1">
          <mxGeometry x="7" y="20" width="813" height="30" as="geometry" />
        </mxCell>
        <mxCell id="abhu93Ytleb-flPvAil3-2" value="UI" style="shape=umlLifeline;perimeter=lifelinePerimeter;whiteSpace=wrap;html=1;container=0;dropTarget=0;collapsible=0;recursiveResize=0;outlineConnect=0;portConstraint=eastwest;newEdgeStyle={&quot;edgeStyle&quot;:&quot;elbowEdgeStyle&quot;,&quot;elbow&quot;:&quot;vertical&quot;,&quot;curved&quot;:0,&quot;rounded&quot;:0};" parent="1" vertex="1">
          <mxGeometry x="259" y="80" width="100" height="460" as="geometry" />
        </mxCell>
        <mxCell id="abhu93Ytleb-flPvAil3-3" value="" style="html=1;points=[];perimeter=orthogonalPerimeter;outlineConnect=0;targetShapes=umlLifeline;portConstraint=eastwest;newEdgeStyle={&quot;edgeStyle&quot;:&quot;elbowEdgeStyle&quot;,&quot;elbow&quot;:&quot;vertical&quot;,&quot;curved&quot;:0,&quot;rounded&quot;:0};" parent="abhu93Ytleb-flPvAil3-2" vertex="1">
          <mxGeometry x="45" y="70" width="10" height="340" as="geometry" />
        </mxCell>
        <mxCell id="abhu93Ytleb-flPvAil3-4" value="" style="shape=umlDestroy;whiteSpace=wrap;html=1;strokeWidth=3;targetShapes=umlLifeline;" parent="abhu93Ytleb-flPvAil3-2" vertex="1">
          <mxGeometry x="41.5" y="440" width="20" height="20" as="geometry" />
        </mxCell>
        <mxCell id="abhu93Ytleb-flPvAil3-5" value="Database" style="shape=umlLifeline;perimeter=lifelinePerimeter;whiteSpace=wrap;html=1;container=0;dropTarget=0;collapsible=0;recursiveResize=0;outlineConnect=0;portConstraint=eastwest;newEdgeStyle={&quot;edgeStyle&quot;:&quot;elbowEdgeStyle&quot;,&quot;elbow&quot;:&quot;vertical&quot;,&quot;curved&quot;:0,&quot;rounded&quot;:0};" parent="1" vertex="1">
          <mxGeometry x="651.25" y="80" width="100" height="460" as="geometry" />
        </mxCell>
        <mxCell id="abhu93Ytleb-flPvAil3-6" value="" style="html=1;points=[];perimeter=orthogonalPerimeter;outlineConnect=0;targetShapes=umlLifeline;portConstraint=eastwest;newEdgeStyle={&quot;edgeStyle&quot;:&quot;elbowEdgeStyle&quot;,&quot;elbow&quot;:&quot;vertical&quot;,&quot;curved&quot;:0,&quot;rounded&quot;:0};" parent="abhu93Ytleb-flPvAil3-5" vertex="1">
          <mxGeometry x="45" y="70" width="10" height="340" as="geometry" />
        </mxCell>
        <mxCell id="abhu93Ytleb-flPvAil3-7" value="" style="shape=umlDestroy;whiteSpace=wrap;html=1;strokeWidth=3;targetShapes=umlLifeline;" parent="abhu93Ytleb-flPvAil3-5" vertex="1">
          <mxGeometry x="41.5" y="440" width="20" height="20" as="geometry" />
        </mxCell>
        <mxCell id="abhu93Ytleb-flPvAil3-8" value="Insert the the Details of &lt;br&gt;Employee Requests" style="html=1;verticalAlign=bottom;endArrow=block;edgeStyle=elbowEdgeStyle;elbow=vertical;curved=0;rounded=0;" parent="1" edge="1">
          <mxGeometry relative="1" as="geometry">
            <mxPoint x="510" y="320" as="sourcePoint" />
            <Array as="points">
              <mxPoint x="551.5" y="320" />
              <mxPoint x="610" y="190" />
              <mxPoint x="590" y="220" />
            </Array>
            <mxPoint x="700" y="320.5" as="targetPoint" />
          </mxGeometry>
        </mxCell>
        <mxCell id="abhu93Ytleb-flPvAil3-9" value="Details of the Employee Requests&amp;nbsp;&lt;br style=&quot;border-color: var(--border-color);&quot;&gt;not saved" style="html=1;verticalAlign=bottom;endArrow=open;dashed=1;endSize=8;edgeStyle=elbowEdgeStyle;elbow=vertical;curved=0;rounded=0;exitX=0.8;exitY=0.824;exitDx=0;exitDy=0;exitPerimeter=0;" parent="1" edge="1">
          <mxGeometry x="-0.0057" relative="1" as="geometry">
            <mxPoint x="510" y="440" as="targetPoint" />
            <Array as="points">
              <mxPoint x="560" y="440" />
              <mxPoint x="650" y="510" />
              <mxPoint x="630" y="500" />
              <mxPoint x="610" y="490" />
              <mxPoint x="590" y="480" />
              <mxPoint x="605" y="460" />
            </Array>
            <mxPoint as="offset" />
            <mxPoint x="700" y="440.15999999999997" as="sourcePoint" />
          </mxGeometry>
        </mxCell>
        <mxCell id="abhu93Ytleb-flPvAil3-10" value="Details of the Employee Requests&lt;br&gt;saved Successfully" style="html=1;verticalAlign=bottom;endArrow=open;dashed=1;endSize=8;edgeStyle=elbowEdgeStyle;elbow=horizontal;curved=0;rounded=0;" parent="1" edge="1">
          <mxGeometry relative="1" as="geometry">
            <mxPoint x="510" y="370" as="targetPoint" />
            <Array as="points">
              <mxPoint x="570" y="370" />
              <mxPoint x="610" y="410" />
              <mxPoint x="590" y="400" />
              <mxPoint x="600" y="400" />
            </Array>
            <mxPoint x="692" y="370" as="sourcePoint" />
          </mxGeometry>
        </mxCell>
        <mxCell id="abhu93Ytleb-flPvAil3-11" value="" style="endArrow=none;dashed=1;html=1;rounded=0;" parent="1" edge="1">
          <mxGeometry width="50" height="50" relative="1" as="geometry">
            <mxPoint x="116.5" y="530" as="sourcePoint" />
            <mxPoint x="117.5" y="150" as="targetPoint" />
          </mxGeometry>
        </mxCell>
        <mxCell id="abhu93Ytleb-flPvAil3-12" value="Project Manger" style="shape=umlActor;verticalLabelPosition=bottom;verticalAlign=top;html=1;outlineConnect=0;" parent="1" vertex="1">
          <mxGeometry x="107.5" y="80" width="20" height="40" as="geometry" />
        </mxCell>
        <mxCell id="abhu93Ytleb-flPvAil3-13" value="Alternative" style="shape=umlFrame;whiteSpace=wrap;html=1;pointerEvents=0;" parent="1" vertex="1">
          <mxGeometry x="69" y="340" width="691" height="140" as="geometry" />
        </mxCell>
        <mxCell id="abhu93Ytleb-flPvAil3-14" value="" style="line;strokeWidth=1;fillColor=none;align=left;verticalAlign=middle;spacingTop=-1;spacingLeft=3;spacingRight=3;rotatable=0;labelPosition=right;points=[];portConstraint=eastwest;strokeColor=inherit;" parent="1" vertex="1">
          <mxGeometry x="69" y="406" width="691" height="8" as="geometry" />
        </mxCell>
        <mxCell id="abhu93Ytleb-flPvAil3-15" value="Display Request Sent Successfully" style="html=1;verticalAlign=bottom;endArrow=block;edgeStyle=elbowEdgeStyle;elbow=vertical;curved=0;rounded=0;dashed=1;exitX=0.025;exitY=0.735;exitDx=0;exitDy=0;exitPerimeter=0;" parent="1" source="abhu93Ytleb-flPvAil3-3" edge="1">
          <mxGeometry width="80" relative="1" as="geometry">
            <mxPoint x="286.5" y="400" as="sourcePoint" />
            <mxPoint x="116.5" y="400" as="targetPoint" />
            <Array as="points">
              <mxPoint x="206.5" y="400" />
            </Array>
          </mxGeometry>
        </mxCell>
        <mxCell id="abhu93Ytleb-flPvAil3-16" value="Display Error Message" style="html=1;verticalAlign=bottom;endArrow=block;edgeStyle=elbowEdgeStyle;elbow=vertical;curved=0;rounded=0;dashed=1;" parent="1" edge="1">
          <mxGeometry width="80" relative="1" as="geometry">
            <mxPoint x="304" y="470" as="sourcePoint" />
            <mxPoint x="116.5" y="470" as="targetPoint" />
          </mxGeometry>
        </mxCell>
        <mxCell id="abhu93Ytleb-flPvAil3-17" value="&lt;font style=&quot;&quot;&gt;&lt;b style=&quot;font-size: 10px;&quot;&gt;[if Details add Successfully&lt;/b&gt;&lt;b style=&quot;font-size: 10px;&quot;&gt;]&lt;/b&gt;&lt;/font&gt;" style="text;html=1;strokeColor=none;fillColor=none;align=left;verticalAlign=middle;whiteSpace=wrap;rounded=0;" parent="1" vertex="1">
          <mxGeometry x="134.25" y="350" width="135.75" height="10" as="geometry" />
        </mxCell>
        <mxCell id="abhu93Ytleb-flPvAil3-18" value="&lt;font style=&quot;font-size: 10px;&quot;&gt;&lt;b&gt;[else]&lt;/b&gt;&lt;/font&gt;" style="text;html=1;strokeColor=none;fillColor=none;align=left;verticalAlign=middle;whiteSpace=wrap;rounded=0;" parent="1" vertex="1">
          <mxGeometry x="69" y="418" width="80" height="10" as="geometry" />
        </mxCell>
        <mxCell id="abhu93Ytleb-flPvAil3-23" value="Select the Employee Tab" style="html=1;verticalAlign=bottom;endArrow=blockThin;edgeStyle=elbowEdgeStyle;elbow=vertical;curved=0;rounded=0;endFill=1;" parent="1" target="abhu93Ytleb-flPvAil3-3" edge="1">
          <mxGeometry relative="1" as="geometry">
            <mxPoint x="286.5" y="200" as="targetPoint" />
            <Array as="points">
              <mxPoint x="228.5" y="200" />
              <mxPoint x="196" y="220" />
            </Array>
            <mxPoint x="116.5" y="200" as="sourcePoint" />
            <mxPoint as="offset" />
          </mxGeometry>
        </mxCell>
        <mxCell id="abhu93Ytleb-flPvAil3-24" value="Fill the Details of Employee Requests" style="html=1;verticalAlign=bottom;endArrow=blockThin;edgeStyle=elbowEdgeStyle;elbow=vertical;curved=0;rounded=0;endFill=1;" parent="1" target="abhu93Ytleb-flPvAil3-3" edge="1">
          <mxGeometry relative="1" as="geometry">
            <mxPoint x="286.5" y="240" as="targetPoint" />
            <Array as="points">
              <mxPoint x="228.5" y="240" />
              <mxPoint x="196" y="260" />
            </Array>
            <mxPoint x="116.5" y="240" as="sourcePoint" />
            <mxPoint as="offset" />
          </mxGeometry>
        </mxCell>
        <mxCell id="abhu93Ytleb-flPvAil3-25" value="System" style="shape=umlLifeline;perimeter=lifelinePerimeter;whiteSpace=wrap;html=1;container=0;dropTarget=0;collapsible=0;recursiveResize=0;outlineConnect=0;portConstraint=eastwest;newEdgeStyle={&quot;edgeStyle&quot;:&quot;elbowEdgeStyle&quot;,&quot;elbow&quot;:&quot;vertical&quot;,&quot;curved&quot;:0,&quot;rounded&quot;:0};" parent="1" vertex="1">
          <mxGeometry x="454.25" y="80" width="100" height="460" as="geometry" />
        </mxCell>
        <mxCell id="abhu93Ytleb-flPvAil3-26" value="" style="html=1;points=[];perimeter=orthogonalPerimeter;outlineConnect=0;targetShapes=umlLifeline;portConstraint=eastwest;newEdgeStyle={&quot;edgeStyle&quot;:&quot;elbowEdgeStyle&quot;,&quot;elbow&quot;:&quot;vertical&quot;,&quot;curved&quot;:0,&quot;rounded&quot;:0};" parent="abhu93Ytleb-flPvAil3-25" vertex="1">
          <mxGeometry x="45" y="70" width="10" height="340" as="geometry" />
        </mxCell>
        <mxCell id="abhu93Ytleb-flPvAil3-27" value="" style="shape=umlDestroy;whiteSpace=wrap;html=1;strokeWidth=3;targetShapes=umlLifeline;" parent="abhu93Ytleb-flPvAil3-25" vertex="1">
          <mxGeometry x="41.5" y="440" width="20" height="20" as="geometry" />
        </mxCell>
        <mxCell id="2nHTvawhZgZGjhpYhyEr-1" value="Added the Details of &lt;br&gt;Employee Requests" style="html=1;verticalAlign=bottom;endArrow=block;edgeStyle=elbowEdgeStyle;elbow=horizontal;curved=0;rounded=0;" parent="1" edge="1">
          <mxGeometry relative="1" as="geometry">
            <mxPoint x="314.25" y="280" as="sourcePoint" />
            <Array as="points">
              <mxPoint x="416.75" y="280" />
              <mxPoint x="376.75" y="270" />
              <mxPoint x="446.75" y="140" />
              <mxPoint x="414.25" y="130" />
              <mxPoint x="394.25" y="160" />
            </Array>
            <mxPoint x="504.25" y="280" as="targetPoint" />
            <mxPoint as="offset" />
          </mxGeometry>
        </mxCell>
        <mxCell id="biNYgUEbNofMH58p99U8-1" value="Details Saved" style="html=1;verticalAlign=bottom;endArrow=open;dashed=1;endSize=8;edgeStyle=elbowEdgeStyle;elbow=vertical;curved=0;rounded=0;" parent="1" edge="1">
          <mxGeometry relative="1" as="geometry">
            <mxPoint x="314.25" y="380" as="targetPoint" />
            <Array as="points">
              <mxPoint x="374.25" y="380" />
              <mxPoint x="414.25" y="420" />
              <mxPoint x="394.25" y="410" />
              <mxPoint x="404.25" y="410" />
            </Array>
            <mxPoint x="496.25" y="380" as="sourcePoint" />
          </mxGeometry>
        </mxCell>
        <mxCell id="S1UIRf6t2ea8HmM5_tA2-1" value="Details not Saved" style="html=1;verticalAlign=bottom;endArrow=open;dashed=1;endSize=8;edgeStyle=elbowEdgeStyle;elbow=vertical;curved=0;rounded=0;" parent="1" source="abhu93Ytleb-flPvAil3-26" edge="1">
          <mxGeometry relative="1" as="geometry">
            <mxPoint x="310.62" y="450" as="targetPoint" />
            <Array as="points">
              <mxPoint x="370.62" y="450" />
              <mxPoint x="410.62" y="490" />
              <mxPoint x="390.62" y="480" />
              <mxPoint x="400.62" y="480" />
            </Array>
            <mxPoint x="492.62" y="450" as="sourcePoint" />
          </mxGeometry>
        </mxCell>
        <mxCell id="FXQDbffLARBuaHBlsUe4-2" value="UI" style="shape=umlLifeline;perimeter=lifelinePerimeter;whiteSpace=wrap;html=1;container=0;dropTarget=0;collapsible=0;recursiveResize=0;outlineConnect=0;portConstraint=eastwest;newEdgeStyle={&quot;edgeStyle&quot;:&quot;elbowEdgeStyle&quot;,&quot;elbow&quot;:&quot;vertical&quot;,&quot;curved&quot;:0,&quot;rounded&quot;:0};" parent="1" vertex="1">
          <mxGeometry x="259" y="660" width="100" height="460" as="geometry" />
        </mxCell>
        <mxCell id="FXQDbffLARBuaHBlsUe4-3" value="" style="html=1;points=[];perimeter=orthogonalPerimeter;outlineConnect=0;targetShapes=umlLifeline;portConstraint=eastwest;newEdgeStyle={&quot;edgeStyle&quot;:&quot;elbowEdgeStyle&quot;,&quot;elbow&quot;:&quot;vertical&quot;,&quot;curved&quot;:0,&quot;rounded&quot;:0};" parent="FXQDbffLARBuaHBlsUe4-2" vertex="1">
          <mxGeometry x="45" y="70" width="10" height="340" as="geometry" />
        </mxCell>
        <mxCell id="FXQDbffLARBuaHBlsUe4-4" value="" style="shape=umlDestroy;whiteSpace=wrap;html=1;strokeWidth=3;targetShapes=umlLifeline;" parent="FXQDbffLARBuaHBlsUe4-2" vertex="1">
          <mxGeometry x="41.5" y="440" width="20" height="20" as="geometry" />
        </mxCell>
        <mxCell id="FXQDbffLARBuaHBlsUe4-5" value="Database" style="shape=umlLifeline;perimeter=lifelinePerimeter;whiteSpace=wrap;html=1;container=0;dropTarget=0;collapsible=0;recursiveResize=0;outlineConnect=0;portConstraint=eastwest;newEdgeStyle={&quot;edgeStyle&quot;:&quot;elbowEdgeStyle&quot;,&quot;elbow&quot;:&quot;vertical&quot;,&quot;curved&quot;:0,&quot;rounded&quot;:0};" parent="1" vertex="1">
          <mxGeometry x="651.25" y="660" width="100" height="460" as="geometry" />
        </mxCell>
        <mxCell id="FXQDbffLARBuaHBlsUe4-6" value="" style="html=1;points=[];perimeter=orthogonalPerimeter;outlineConnect=0;targetShapes=umlLifeline;portConstraint=eastwest;newEdgeStyle={&quot;edgeStyle&quot;:&quot;elbowEdgeStyle&quot;,&quot;elbow&quot;:&quot;vertical&quot;,&quot;curved&quot;:0,&quot;rounded&quot;:0};" parent="FXQDbffLARBuaHBlsUe4-5" vertex="1">
          <mxGeometry x="45" y="70" width="10" height="340" as="geometry" />
        </mxCell>
        <mxCell id="FXQDbffLARBuaHBlsUe4-7" value="" style="shape=umlDestroy;whiteSpace=wrap;html=1;strokeWidth=3;targetShapes=umlLifeline;" parent="FXQDbffLARBuaHBlsUe4-5" vertex="1">
          <mxGeometry x="41.5" y="440" width="20" height="20" as="geometry" />
        </mxCell>
        <mxCell id="FXQDbffLARBuaHBlsUe4-8" value="Insert the the Details of &lt;br&gt;Material&amp;nbsp;Requests" style="html=1;verticalAlign=bottom;endArrow=block;edgeStyle=elbowEdgeStyle;elbow=vertical;curved=0;rounded=0;" parent="1" edge="1">
          <mxGeometry relative="1" as="geometry">
            <mxPoint x="510" y="900" as="sourcePoint" />
            <Array as="points">
              <mxPoint x="551.5" y="900" />
              <mxPoint x="610" y="770" />
              <mxPoint x="590" y="800" />
            </Array>
            <mxPoint x="700" y="900.5" as="targetPoint" />
          </mxGeometry>
        </mxCell>
        <mxCell id="FXQDbffLARBuaHBlsUe4-9" value="Details of the Material&amp;nbsp;Requests&amp;nbsp;&lt;br style=&quot;border-color: var(--border-color);&quot;&gt;not saved" style="html=1;verticalAlign=bottom;endArrow=open;dashed=1;endSize=8;edgeStyle=elbowEdgeStyle;elbow=vertical;curved=0;rounded=0;exitX=0.8;exitY=0.824;exitDx=0;exitDy=0;exitPerimeter=0;" parent="1" edge="1">
          <mxGeometry x="-0.0057" relative="1" as="geometry">
            <mxPoint x="510" y="1020" as="targetPoint" />
            <Array as="points">
              <mxPoint x="560" y="1020" />
              <mxPoint x="650" y="1090" />
              <mxPoint x="630" y="1080" />
              <mxPoint x="610" y="1070" />
              <mxPoint x="590" y="1060" />
              <mxPoint x="605" y="1040" />
            </Array>
            <mxPoint as="offset" />
            <mxPoint x="700" y="1020.16" as="sourcePoint" />
          </mxGeometry>
        </mxCell>
        <mxCell id="FXQDbffLARBuaHBlsUe4-10" value="Details of the Material Requests&lt;br&gt;saved Successfully" style="html=1;verticalAlign=bottom;endArrow=open;dashed=1;endSize=8;edgeStyle=elbowEdgeStyle;elbow=horizontal;curved=0;rounded=0;" parent="1" edge="1">
          <mxGeometry relative="1" as="geometry">
            <mxPoint x="510" y="950" as="targetPoint" />
            <Array as="points">
              <mxPoint x="570" y="950" />
              <mxPoint x="610" y="990" />
              <mxPoint x="590" y="980" />
              <mxPoint x="600" y="980" />
            </Array>
            <mxPoint x="692" y="950" as="sourcePoint" />
          </mxGeometry>
        </mxCell>
        <mxCell id="FXQDbffLARBuaHBlsUe4-11" value="" style="endArrow=none;dashed=1;html=1;rounded=0;" parent="1" edge="1">
          <mxGeometry width="50" height="50" relative="1" as="geometry">
            <mxPoint x="116.5" y="1110" as="sourcePoint" />
            <mxPoint x="117.5" y="730" as="targetPoint" />
          </mxGeometry>
        </mxCell>
        <mxCell id="FXQDbffLARBuaHBlsUe4-12" value="Senior Project Manger" style="shape=umlActor;verticalLabelPosition=bottom;verticalAlign=top;html=1;outlineConnect=0;" parent="1" vertex="1">
          <mxGeometry x="107.5" y="660" width="20" height="40" as="geometry" />
        </mxCell>
        <mxCell id="FXQDbffLARBuaHBlsUe4-13" value="Alternative" style="shape=umlFrame;whiteSpace=wrap;html=1;pointerEvents=0;" parent="1" vertex="1">
          <mxGeometry x="69" y="920" width="691" height="140" as="geometry" />
        </mxCell>
        <mxCell id="FXQDbffLARBuaHBlsUe4-14" value="" style="line;strokeWidth=1;fillColor=none;align=left;verticalAlign=middle;spacingTop=-1;spacingLeft=3;spacingRight=3;rotatable=0;labelPosition=right;points=[];portConstraint=eastwest;strokeColor=inherit;" parent="1" vertex="1">
          <mxGeometry x="69" y="986" width="691" height="8" as="geometry" />
        </mxCell>
        <mxCell id="FXQDbffLARBuaHBlsUe4-15" value="Display Request Sent Successfully" style="html=1;verticalAlign=bottom;endArrow=block;edgeStyle=elbowEdgeStyle;elbow=vertical;curved=0;rounded=0;dashed=1;exitX=0.025;exitY=0.735;exitDx=0;exitDy=0;exitPerimeter=0;" parent="1" source="FXQDbffLARBuaHBlsUe4-3" edge="1">
          <mxGeometry width="80" relative="1" as="geometry">
            <mxPoint x="286.5" y="980" as="sourcePoint" />
            <mxPoint x="116.5" y="980" as="targetPoint" />
            <Array as="points">
              <mxPoint x="206.5" y="980" />
            </Array>
          </mxGeometry>
        </mxCell>
        <mxCell id="FXQDbffLARBuaHBlsUe4-16" value="Display Error Message" style="html=1;verticalAlign=bottom;endArrow=block;edgeStyle=elbowEdgeStyle;elbow=vertical;curved=0;rounded=0;dashed=1;" parent="1" edge="1">
          <mxGeometry width="80" relative="1" as="geometry">
            <mxPoint x="304" y="1050" as="sourcePoint" />
            <mxPoint x="116.5" y="1050" as="targetPoint" />
          </mxGeometry>
        </mxCell>
        <mxCell id="FXQDbffLARBuaHBlsUe4-17" value="&lt;font style=&quot;&quot;&gt;&lt;b style=&quot;font-size: 10px;&quot;&gt;[if Details add Successfully&lt;/b&gt;&lt;b style=&quot;font-size: 10px;&quot;&gt;]&lt;/b&gt;&lt;/font&gt;" style="text;html=1;strokeColor=none;fillColor=none;align=left;verticalAlign=middle;whiteSpace=wrap;rounded=0;" parent="1" vertex="1">
          <mxGeometry x="134.25" y="930" width="135.75" height="10" as="geometry" />
        </mxCell>
        <mxCell id="FXQDbffLARBuaHBlsUe4-18" value="&lt;font style=&quot;font-size: 10px;&quot;&gt;&lt;b&gt;[else]&lt;/b&gt;&lt;/font&gt;" style="text;html=1;strokeColor=none;fillColor=none;align=left;verticalAlign=middle;whiteSpace=wrap;rounded=0;" parent="1" vertex="1">
          <mxGeometry x="69" y="998" width="80" height="10" as="geometry" />
        </mxCell>
        <mxCell id="FXQDbffLARBuaHBlsUe4-20" value="Fill the Details of Material Requests" style="html=1;verticalAlign=bottom;endArrow=blockThin;edgeStyle=elbowEdgeStyle;elbow=horizontal;curved=0;rounded=0;endFill=1;" parent="1" target="FXQDbffLARBuaHBlsUe4-3" edge="1">
          <mxGeometry relative="1" as="geometry">
            <mxPoint x="286.5" y="820" as="targetPoint" />
            <Array as="points">
              <mxPoint x="228.5" y="820" />
              <mxPoint x="196" y="840" />
            </Array>
            <mxPoint x="116.5" y="820" as="sourcePoint" />
            <mxPoint as="offset" />
          </mxGeometry>
        </mxCell>
        <mxCell id="FXQDbffLARBuaHBlsUe4-21" value="System" style="shape=umlLifeline;perimeter=lifelinePerimeter;whiteSpace=wrap;html=1;container=0;dropTarget=0;collapsible=0;recursiveResize=0;outlineConnect=0;portConstraint=eastwest;newEdgeStyle={&quot;edgeStyle&quot;:&quot;elbowEdgeStyle&quot;,&quot;elbow&quot;:&quot;vertical&quot;,&quot;curved&quot;:0,&quot;rounded&quot;:0};" parent="1" vertex="1">
          <mxGeometry x="454.25" y="660" width="100" height="460" as="geometry" />
        </mxCell>
        <mxCell id="FXQDbffLARBuaHBlsUe4-22" value="" style="html=1;points=[];perimeter=orthogonalPerimeter;outlineConnect=0;targetShapes=umlLifeline;portConstraint=eastwest;newEdgeStyle={&quot;edgeStyle&quot;:&quot;elbowEdgeStyle&quot;,&quot;elbow&quot;:&quot;vertical&quot;,&quot;curved&quot;:0,&quot;rounded&quot;:0};" parent="FXQDbffLARBuaHBlsUe4-21" vertex="1">
          <mxGeometry x="45" y="70" width="10" height="340" as="geometry" />
        </mxCell>
        <mxCell id="FXQDbffLARBuaHBlsUe4-23" value="" style="shape=umlDestroy;whiteSpace=wrap;html=1;strokeWidth=3;targetShapes=umlLifeline;" parent="FXQDbffLARBuaHBlsUe4-21" vertex="1">
          <mxGeometry x="41.5" y="440" width="20" height="20" as="geometry" />
        </mxCell>
        <mxCell id="FXQDbffLARBuaHBlsUe4-24" value="Added the Details of &lt;br&gt;Material&amp;nbsp;Requests" style="html=1;verticalAlign=bottom;endArrow=block;edgeStyle=elbowEdgeStyle;elbow=horizontal;curved=0;rounded=0;" parent="1" edge="1">
          <mxGeometry relative="1" as="geometry">
            <mxPoint x="314.25" y="860" as="sourcePoint" />
            <Array as="points">
              <mxPoint x="416.75" y="860" />
              <mxPoint x="376.75" y="850" />
              <mxPoint x="446.75" y="720" />
              <mxPoint x="414.25" y="710" />
              <mxPoint x="394.25" y="740" />
            </Array>
            <mxPoint x="504.25" y="860" as="targetPoint" />
            <mxPoint as="offset" />
          </mxGeometry>
        </mxCell>
        <mxCell id="FXQDbffLARBuaHBlsUe4-25" value="Details Saved" style="html=1;verticalAlign=bottom;endArrow=open;dashed=1;endSize=8;edgeStyle=elbowEdgeStyle;elbow=vertical;curved=0;rounded=0;" parent="1" edge="1">
          <mxGeometry relative="1" as="geometry">
            <mxPoint x="314.25" y="960" as="targetPoint" />
            <Array as="points">
              <mxPoint x="374.25" y="960" />
              <mxPoint x="414.25" y="1000" />
              <mxPoint x="394.25" y="990" />
              <mxPoint x="404.25" y="990" />
            </Array>
            <mxPoint x="496.25" y="960" as="sourcePoint" />
          </mxGeometry>
        </mxCell>
        <mxCell id="FXQDbffLARBuaHBlsUe4-26" value="Details not Saved" style="html=1;verticalAlign=bottom;endArrow=open;dashed=1;endSize=8;edgeStyle=elbowEdgeStyle;elbow=vertical;curved=0;rounded=0;" parent="1" source="FXQDbffLARBuaHBlsUe4-22" edge="1">
          <mxGeometry relative="1" as="geometry">
            <mxPoint x="310.62" y="1030" as="targetPoint" />
            <Array as="points">
              <mxPoint x="370.62" y="1030" />
              <mxPoint x="410.62" y="1070" />
              <mxPoint x="390.62" y="1060" />
              <mxPoint x="400.62" y="1060" />
            </Array>
            <mxPoint x="492.62" y="1030" as="sourcePoint" />
          </mxGeometry>
        </mxCell>
        <mxCell id="S5jBWaYTy9oW_6UdNt2J-1" value="&lt;font style=&quot;border-color: var(--border-color);&quot;&gt;&lt;b style=&quot;border-color: var(--border-color); font-size: 16px;&quot;&gt;Sequence Diagram - Senior Project Manager Send&amp;nbsp;&lt;b style=&quot;border-color: var(--border-color);&quot;&gt;Material&lt;/b&gt;&amp;nbsp;Request for Project From Resource Manager&lt;/b&gt;&lt;/font&gt;" style="text;html=1;strokeColor=none;fillColor=none;align=center;verticalAlign=middle;whiteSpace=wrap;rounded=0;" parent="1" vertex="1">
          <mxGeometry x="7" y="584.5" width="813" height="30" as="geometry" />
        </mxCell>
      </root>
    </mxGraphModel>
  </diagram>
</mxfile>
